<?xml version="1.0" encoding="UTF-8"?>
<svg width="771px" height="507px" viewBox="0 0 771 507" version="1.1" xmlns="http://www.w3.org/2000/svg" xmlns:xlink="http://www.w3.org/1999/xlink">
    <!-- Generator: Sketch 51.1 (57501) - http://www.bohemiancoding.com/sketch -->
    <title>crouchkitty</title>
    <desc>Created with Sketch.</desc>
    <defs>
        <path d="M242.749522,172.561112 C239.344539,208.60905 234.963065,231.336352 229.605099,240.743016 C224.247134,250.149681 208.821755,264.555092 183.328963,283.959249 L156.584776,332.774055 L154.516632,342.959491 L163.174501,347.520939 L163.174501,354.729998 L146.724868,354.729998 L140.848407,342.959491 L140.848407,332.774055 L151.527703,262.965511 C143.338149,260.000939 135.243141,258.518653 127.242678,258.518653 C119.242215,258.518653 111.243648,260.000939 103.246976,262.965511 C86.5748995,285.728466 76.7592644,298.351953 73.8000712,300.835973 C70.8408779,303.319993 69.3612813,307.814736 69.3612813,314.3202 L69.3612813,322.58862 L83.6392826,342.959491 L90.6891254,342.959491 L97.9220603,347.520939 L97.9220603,354.729998 L81.0728087,354.729998 L44.1120815,314.3202 L44.1120815,277.132958 L31.4357382,217.406886 C34.8119127,192.802295 42.8333333,176.813931 55.5,169.441792 C74.5,158.383585 82.8000484,159.466291 112.998047,161.498047 C133.130046,162.852551 152.977118,168.12531 172.539265,177.316327 L188.466687,174.808483 L188.466687,169.441792 L242.749522,172.561112 Z" id="path-1"></path>
    </defs>
    <g id="new" stroke="none" stroke-width="1" fill="none" fill-rule="evenodd">
        <g id="crouchkitty">
            <g id="Group-3" transform="translate(11.000000, -12.000000)">
                <path d="M144.001953,64.5 C189.503906,64.5 242.714211,71.8431299 287,91 C327.03323,108.317324 293.960821,154.83652 303,166 C321.393005,188.715551 350.24042,198.610562 379.015625,203 C394.293483,205.330521 423.0535,206.395368 439.015625,202 C492.554938,187.257291 542.637073,145.653966 601.015625,152 C686.326272,161.273684 754.548589,242.688029 730.996094,328.996094 C723.936047,354.86762 702.95701,380.427675 682.988281,396.996094 C593.569075,471.188843 539.159368,407 417.159368,407 C295.159368,407 250.007367,483.178406 163.5,425.5 C140.394543,410.094538 123.618852,395.341532 113,370 C102.381148,344.658468 138.420968,317.374129 148.011719,313 C156.40119,309.173748 165.86181,308.109553 175.015625,307 C191.157644,305.043392 250.836379,311.032925 244,274 C239.68534,250.627325 206.483105,236.935815 185.984375,237.996094 C122.388935,241.285513 64.8684467,308.708224 8.9921875,243.996094 C-12.1650007,219.493259 9.52701317,181.649435 36.0078125,171 C57.2424583,162.460342 81.2734241,163.161179 103.011719,156 C109.74509,153.781846 132.230949,138.346367 123.996094,125.996094 C112.622933,108.939128 86.3830465,113.224531 70,111.5 C62.9842651,110.761502 54.6749724,110.249908 52.5,103 C51.0500184,98.166728 54.3833517,92.666728 62.5,86.5 C86.5,71.8333333 113.667318,64.5 144.001953,64.5 Z" id="Path-122" fill="#DFE2EC" fill-rule="nonzero" transform="translate(368.081637, 255.792015) scale(-1, 1) translate(-368.081637, -255.792015) "></path>
                <g id="Group" transform="translate(326.000000, 316.000000)">
                    <path d="M101.966046,36.839323 C146.631816,12.5934255 171.767608,0.323755941 177.373425,0.0303142771 C185.782149,-0.409848219 215.061988,4.05225709 218.133049,6.34155007 C221.20411,8.63084305 227.295814,16.7452891 226.98882,31.5932133 C226.784157,41.4918294 223.832234,56.87885 218.133049,77.7542751 C195.775515,107.413537 180.4105,123.202639 172.038002,125.121584 C163.665505,127.040528 149.078431,128 128.276782,128 L101.966046,123.755176 L90,52.9360543 L101.966046,36.839323 Z" id="Path-83" fill="#0E2440"></path>
                    <path d="M114,124.875 C120.916992,126.625 125.130144,129.724766 126.639455,134.174297 C127.950575,138.039548 129.125488,142.363544 129.125488,145.9375 C129.125488,148.320137 128.296811,150.614486 126.639455,152.820547 C123.87965,153.640911 122.041498,154.812631 121.125,156.335706 C119.750253,158.62032 119.502325,160.398424 121.125,164.125 C122.206784,166.609384 124.044935,168.234384 126.639455,169 C130.757127,169 133.898142,169 136.0625,169 C136.21022,169 137.55952,168.295574 137.625,168.25 C138.462313,167.667234 142.847348,158.137961 144,154.875 C145.327504,151.117065 146.660837,145.700398 148,138.625 L150.375,122.875 L117.273358,124 L114,124.875 Z" id="Path-84" fill="#0E2440"></path>
                    <path d="M205,91.2802762 L202.057075,117.125 L202.057075,134.25 L196.625488,150.25 L182.375,150.25 C181.733911,145.619762 181.733911,142.661428 182.375,141.375 C183.049992,140.020542 184.292206,138.059067 186.101643,135.490575 L180,110.867952 L202.057075,84 L205,91.2802762 Z" id="Path-85" fill="#0E2440"></path>
                    <path d="M70.8424022,52.7274845 C66.2056878,34.2054487 66.2056878,21.9629709 70.8424022,16.0000512 C82.8106799,15.9814473 91.138424,21.0331484 95.8256344,31.1551544 L100.382521,39.0625531 C113.002047,42.7446356 120.225564,46.2272843 122.053071,49.5104993 C124.794332,54.4353219 138.299023,73.3465511 134.247838,82.2451651 C130.196654,91.1437792 117.803616,118.952506 111.868859,123.606084 C105.934102,128.259662 70.059344,134.334205 63.6489601,132.740223 C57.2385761,131.146242 38.8829346,115.37721 36.7743583,111.582016 C35.3686408,109.051886 34.665782,106.355438 34.665782,103.492671 L0.0396838402,76.9006388 C-0.403640713,70.9935307 2.86745586,68.0399767 9.85297357,68.0399767 C16.8384913,68.0399767 29.530049,69.4259667 47.9276466,72.1979467 C51.4259749,67.8557981 54.3387731,64.333337 56.6660414,61.6305635 C58.9933097,58.9277899 63.7187633,55.9600969 70.8424022,52.7274845 Z" id="Path-82" fill="#0E2440"></path>
                    <ellipse id="Oval-3" fill="#FFFFFF" cx="66.1860465" cy="110.118919" rx="5.79069767" ry="5.78918919"></ellipse>
                    <ellipse id="Oval-3" fill="#FFFFFF" cx="105.186047" cy="75.1189189" rx="5.79069767" ry="5.78918919"></ellipse>
                </g>
                <path d="M435.497379,336 L411.486316,353.823937 L392.510207,353.823937 L381.831472,364.201071 L376.999895,368.896189 C375.652261,374.141568 374.818963,378.134505 374.5,380.875 C374.181037,383.615495 374.181037,386.782162 374.5,390.375 L373,399 C375.423126,399.812334 377.981863,397.596776 380.676211,392.353327 C383.370559,387.109877 384.918927,381.332632 385.321313,375.021593 L404.875,367.5 L430.729473,363.138968 L447,353.823937 L435.497379,336 Z" id="Path-23" fill="#F2E2DF"></path>
                <g id="Group" transform="translate(316.000000, 0.000000)">
                    <path d="M27.9538164,64.9539327 L22.5230918,86.7850241 C17.0036531,88.3541068 15.6626225,98.0924321 18.5,116 C19.8832455,124.73009 26.6803544,135.809102 29.25,143.375 C31.0508873,148.677416 32.8008873,155.01075 34.5,162.375 C34.8339844,172.375 36.7091471,181.916667 40.1254883,191 C45.25,204.625 65.2509766,219.625 70.2504883,216.375 C72.4842966,214.922883 62.9378199,203.54455 61.1254883,194.75 C58.88162,183.861368 63.6651331,173.864471 60.0004883,155.125 C55.5841471,132.541667 44.9019232,102.484644 27.9538164,64.9539327 Z" id="Path-34" fill="#0E2440"></path>
                    <path d="M44.0553097,65.1910244 C35.8971239,73.9565907 31.4009034,83.3525415 30.5666482,93.3788769 C29.3152655,108.41838 28.8122926,126.703558 27.4831305,132.244155 C26.5970225,135.937887 24.8732024,140.852125 22.3116704,146.986871 C35.3935749,172.672741 43.9683121,185.611154 48.0358822,185.80211 C52.1034522,185.993066 63.4413717,183.396181 82.0496405,178.011454 L106.121474,144.327868 L97.233891,83.244985 L44.0553097,65.1910244 Z" id="Path-10" fill="#F2E2DF" transform="translate(64.216572, 125.501472) rotate(-26.000000) translate(-64.216572, -125.501472) "></path>
                    <circle id="Oval-2" fill="#0E2440" cx="55.3157895" cy="141.066298" r="6"></circle>
                    <path d="M221.453402,138.056171 C275.485769,160.352057 313.564217,182.983783 335.688744,205.951348 C368.875536,240.402696 408.732854,316.997004 416,336 C420.844764,348.668664 424.012082,370.168664 425.501953,400.5 C382.261755,392.071039 354.675167,386.573644 342.742187,384.007812 C323.856754,379.947064 307.189603,370.29751 292.740736,355.059152 L123.278623,188.254567 C134.330763,162.26651 147.168879,145.533711 161.792969,138.056171 C176.417059,130.57863 196.30387,130.57863 221.453402,138.056171 Z" id="Path-16" fill="#FFFFFF"></path>
                    <path d="M246.218335,363.093104 C246.856702,370.402344 241.098728,370.402344 228.944414,363.093104 C216.7901,355.783864 187.715616,327.715647 141.720962,278.888452 C133.710269,283.195312 127.240183,285.058858 122.310702,284.479088 C117.381222,283.899319 114.916482,282.035773 114.916482,278.888452 L122.310702,274.44355 L108.044248,274.44355 L99.2672843,296.095189 L102.394013,312.415017 L90.8031665,305.803744 C87.9374309,300.865923 86.6002028,296.452944 86.7914823,292.564806 C86.9827618,288.676667 89.8859266,277.655065 95.5009766,259.5 L118.25,243.032454 C131.916667,241.344151 141.083333,241.344151 145.75,243.032454 C150.416667,244.720757 199.249349,271.586892 292.248047,323.630859 L246.218335,363.093104 Z" id="Path-18" fill="#F2E2DF"></path>
                    <polygon id="Path-33" fill="#F2E2DF" points="172.072179 395.32554 224.222345 438.083559 258.434873 423.233861 215.253526 367.651889"></polygon>
                    <path d="M97,298.25 C96.4973083,300.270632 96.4973083,302.270632 97,304.25 C99.8590429,315.507591 105.025773,327.424241 108,333 C118.202924,352.127335 135.860527,369.6955 144.814851,378.79175 C146.386741,380.388555 149.774144,385.529357 149.875,385.621299 C150.973464,386.62269 154.832656,385.458598 155.625,386.375 C157.048161,388.020987 155.541449,391.621782 157.874756,393.562256 C160.208063,395.50273 162.5,392.875244 164.937744,394.9375 C167.375488,396.999756 164,399.125 166.1875,401.5 C168.375,403.875 172.128699,401.326039 174.375,403.125 C176.020895,404.443123 174.845709,405.818743 177.25,406.625 C179.018021,407.217889 181.434688,406.926223 184.5,405.75 L234.776134,385.621299 L171.970202,330.957296 L97,298.25 Z" id="Path-20" fill="#233A57"></path>
                    <path d="M25.1231489,100.506391 C28.9405118,106.123671 63.2758971,114.115418 63.8733919,111.885537 C64.4708866,109.655656 64.06841,108.705715 62.5086976,105.870498 C61.4688894,103.980353 58.7708635,100.635633 54.4146201,95.8363372 C63.6575662,101.369959 69.5250072,107.115028 72.0169431,113.071546 C75.754847,122.006322 74.2101605,124.420112 69.882333,140.571784 C65.5545056,156.723456 59.6888139,171.400297 57.8411231,180.279747 C57.0072624,184.287032 56.602973,204.380126 70.473066,215.240389 C72.794695,217.058222 83.3417717,219.868047 91.089701,218.952867 C97.0154448,218.252922 100.09801,215.87055 100.876668,215.751848 C102.673425,215.477944 101.146798,213.433829 99.8912929,212.579343 C94.4553245,208.87967 90.8673482,203.625112 89.1273641,196.81567 C86.9855088,188.433501 86.5664194,179.572684 87.8700958,170.233218 C88.7923413,179.375635 90.5634051,186.348401 93.1832871,191.151517 C97.1131102,198.356191 106.166287,214.273022 114.029361,212.546807 C118.501347,211.565052 119.094873,188.965734 135.209863,186.627904 C142.957926,185.503879 152.674753,197.572683 163.354127,200.399071 C164.713304,200.758789 171.810624,198.782697 165.489384,192.430183 C161.682571,188.604535 157.520009,186.108812 153.001699,184.943013 C157.257862,185.479538 161.282552,186.55795 165.075772,188.178251 C167.65621,189.280504 169.207533,191.61416 170.319013,193.724279 C172.037292,196.986387 176.931424,198.990126 179.883461,198.598158 C190.766609,197.153109 207.198816,178.759563 194.198138,169.323204 C191.027905,167.022135 188.413374,165.961448 185.233294,165.109348 C182.155,164.284522 177.657356,163.683293 171.740362,163.305661 C178.999461,161.972357 184.882838,161.909615 189.390492,163.117437 C196.755058,165.090767 209.000446,171.943236 211.365304,169.005571 C218.220687,160.489703 207.221325,147.765931 202.665276,144.484893 C189.758439,135.190032 191.431879,139.26103 184.370581,130.657932 C178.973863,124.082868 173.112188,106.99187 170.453434,95.6678784 C165.377407,74.0483894 148.439484,42.146554 121.356683,28.4829685 C94.273882,14.819383 65.0780689,24.320505 48.1636607,38.1832135 C43.0703909,42.3575549 32.9838127,52.418261 30.0934059,59.7408459 C22.840749,78.1147974 20.9154939,94.3147936 25.1231489,100.506391 Z" id="Path-11" fill="#0E2440" transform="translate(118.241161, 120.485865) rotate(-15.000000) translate(-118.241161, -120.485865) "></path>
                    <path d="M216.000244,431.875 C215.497191,432.742767 215.497191,433.430267 216.000244,433.9375 C216.754824,434.698349 218.02675,433.917389 218.798224,434.826172 C219.569698,435.734955 218.467378,436.396819 219.4375,437.375 C220.407622,438.353181 220.970522,437.855848 222,438.3125 C223.029478,438.769152 221.96933,439.524032 222.6875,440.1875 C223.40567,440.850968 224.564747,440.871229 225.053497,441.133414 C225.37933,441.308204 225.607716,441.538488 225.738656,441.824266 L248.125,464.25 C249.375,465.833333 249.096078,467.344582 247.288233,468.783746 C244.576466,470.942493 237.22657,474.194444 232.390625,475.827148 C222.409155,479.197077 216.380563,481.482126 213.25,482.25 C206.625,483.875 193.748047,481.793945 189.426473,486.330078 C186.545423,489.354167 186.545423,493.171094 189.426473,497.780861 L315.75477,497.780861 C319.725208,495.135801 321.960355,492.16707 322.460212,488.874666 C323.209997,483.93606 321.557107,480.70785 318.655939,478.671754 C316.721827,477.314356 303.095179,467.650665 277.775996,449.680679 L259.206616,416.713177 L238.8125,420.875 C232.589041,425.375 228.231093,428.125 225.738656,429.125 C223.246219,430.125 220.000081,431.041667 216.000244,431.875 Z" id="Path-32" fill="#F06D5D"></path>
                    <path d="M345.032633,368.59574 C211.010878,298.69858 138.950936,263.057696 128.852807,261.673087 C118.754678,260.288478 110.204139,262.421202 103.201189,268.07126 C97.8747208,278.841439 94.9144977,286.924281 94.3205199,292.319784 C93.7265421,297.715287 95.1980115,303.155805 98.7349281,308.641337 L151.846101,330.800275 C178.862601,348.529265 193.739192,361.127753 196.475871,368.59574 C200.58089,379.797719 274.417951,462.801281 287.548828,469.837891 C300.679705,476.874501 338,484 355.878906,478.691406 C373.757812,473.382813 397.704771,462.402359 411.076172,436.5 C419.990439,419.231761 419.990439,394.583974 411.076172,362.556641 L345.032633,368.59574 Z" id="Path-19" fill="#233A57"></path>
                    <path d="M278.892561,365.88152 L330,387.125 C332.333333,388.291667 333.083496,388.291667 332.250488,387.125 C331.000977,385.375 329.247329,382.769797 328.625,378.625 C328.210114,375.861802 328.668447,373.153469 330,370.5 C330.8412,373.791153 332.007866,376.999486 333.5,380.125 C334.992134,383.250514 337.242134,386.16718 340.25,388.875 C346.444153,391.908314 358.152487,395.32498 375.375,399.125 C392.597513,402.92502 409.198425,403.359916 425.177734,400.429688 C420.896572,384.909224 416.951911,373.054986 413.34375,364.866975 C409.735589,356.678963 404.159417,346.927541 396.615234,335.612709 L313.996958,329.304262 L278.892561,335.612709 L278.892561,365.88152 Z" id="Path-31" fill="#FFFFFF"></path>
                    <path d="M150.960039,177.903122 C138.673625,177.903122 127.135371,185.836995 126.264242,197.304702 C125.68349,204.94984 133.915422,220.956777 150.960039,245.325511 L235.83974,344.793982 C243.201527,353.908395 250.005273,360.143734 256.250977,363.5 C265.619532,368.534398 270.453263,368.740543 280.402102,368.740543 C290.35094,368.740543 299.570382,359.115675 302.035122,353.083309 C304.499862,347.050943 305.785813,324.643533 289.103014,307.737033 C277.981149,296.466033 249.32264,267.000157 203.127489,219.339403 C176.540131,191.715216 159.150981,177.903122 150.960039,177.903122 Z" id="Path-17" fill="#FFFFFF"></path>
                </g>
                <g id="Group-2" transform="translate(71.000000, 132.000000)">
                    <path d="M210.857974,263 C208.476971,284.956003 207.286469,297.829354 207.286469,301.620054 C207.286469,305.410754 210.117733,316.726103 215.780261,335.566102 L220.152113,340.229073 L228.131849,340.229073 L234,344.480605 L231.364868,352 L220.152113,352 L203.855736,338.30745 L181,296.611853 L181,273.252861 L210.857974,263 Z" id="Path-25" fill="#0E2440"></path>
                    <path d="M81,268.537023 L61.7407657,287.857434 L24.1822139,306.078775 C20.1555841,313.986989 18.1422693,319.16635 18.1422693,321.616858 C18.1422693,324.067365 18.1422693,330.701019 18.1422693,341.517819 L24.1822139,343.937046 L29.0090414,349.775955 L24.1822139,353 L9.21295875,353 L0,343.937046 L9.21295875,287.857434 C15.9745771,273.952845 20.9643288,265.848463 24.1822139,263.544286 C29.0090414,260.088021 30.8118904,254.839206 30.8118904,246.721039 C30.8118904,238.602871 35.7508952,206.480123 40.5,206.480123 C43.6660698,206.480123 46.8083688,205.320082 49.9268968,203 L81,268.537023 Z" id="Path-24" fill="#0E2440"></path>
                    <path d="M198.514501,115.051003 C206.752353,106.801681 212.457869,102.50957 215.631051,102.17467 C220.390823,101.672321 237.633448,95.289789 245.90042,102.17467 C251.411735,106.764591 257.791003,109.483895 265.038223,110.332581 L272,127.902952 L250.63979,165.759817 L242.578196,195 L204.145623,195 L161,185.097683 C170.712964,176.922986 176.675731,170.477031 178.888301,165.759817 C181.100872,161.042604 183.003358,150.719789 184.595762,134.791375 L198.514501,115.051003 Z" id="Path-22" fill="#EDDECF"></path>
                    <path d="M229.281257,154.1914 C220.746906,146.574201 217.416888,129.43175 219.699921,121.568149 C224.605638,104.671063 235.79133,97.2782272 245.883815,102.81157 C254.245577,107.39602 261.033615,109.600926 266.247928,109.426288 C271.92843,113.436238 273.845787,119.893837 272,128.799083 C270.154213,137.70433 265.144039,146.168435 256.96948,154.1914 C244.200232,159.269533 234.970825,159.269533 229.281257,154.1914 Z" id="Path-22" fill="#0E2440"></path>
                    <path d="M200.187619,115.617404 L180,104 C183.708226,124.295577 187.072829,136.869471 190.093809,141.721683 C193.11479,146.573894 198.009197,149 204.777031,149 L208,135.010748 L190.093809,115.617404 L200.187619,115.617404 Z" id="Path-21" fill="#0E2440"></path>
                    <circle id="Oval-3" fill="#FFFFFF" cx="244" cy="121" r="5"></circle>
                    <g id="Group-+-Group-Mask" transform="translate(5.000000, 0.000000)">
                        <path d="M70.7410463,165.5 C68.7916591,162.373711 71.8439758,147.751078 59.25,133.5 C49.75,122.75 31.2410463,113.75 31.2410463,101 C31.2410463,78 53.4910463,80.4944647 70.7410463,73.4889294 C95.7475986,63.3333187 121.53267,46.3715452 106.23714,20.9869763 C93.5954901,0.00680533642 46.9572975,-7.23499762 31.2410463,8.48892942 C25.3960464,14.336784 37.3966615,23.2718292 41.7429994,22.4889294 C62.5,18.75 81.1808101,23.3937694 84.2509766,31.75 C85.5118521,35.1817901 80.8730823,43.0206878 72.4910463,46.7389294 C58.9652397,52.7389294 41.5,55.75 26.75,62.75 C12,69.75 4.08694713,76.2482342 1.5,88.875 C-1.08694713,101.501766 0.25,109.25 6.75,119.25 C13.25,129.25 34.209947,140.86095 41.7429994,150.5 C50.1855109,161.302765 48.6360237,176.63628 49.75,177.75 L70.7410463,165.5 Z" id="Path-26" fill="#0E2440" fill-rule="nonzero"></path>
                        <mask id="mask-2" fill="white">
                            <use xlink:href="#path-1"></use>
                        </mask>
                        <use id="Mask" fill="#EDDECF" xlink:href="#path-1"></use>
                    </g>
                    <path d="M74.375,322.625 L88.3485739,343.275326 L95.625,343.275326 L102.25,347 L104,349.749586 L104,355 L85.5493384,355 L49,314.5 L49,277.625 L45.125,258.75 C49.272206,249.12586 56.2305394,247.37586 66,253.5 C74.375,258.75 74.375,264.625 84.875,267.625 C89.2227755,268.867222 96.5977755,267.867222 107,264.625 L74.375,308.25 L74.375,322.625 Z" id="Path-29" fill="#233A57"></path>
                    <path d="M189,284.25 L161.625,332.375 L159.25,343.125 L168.375,347.375 L168.375,355 L151.875488,355 L146,343.125 L146,327.860159 L156.625,263 C164.458333,263 170.458333,263.791667 174.625,265.375 C180.934085,267.772452 177.625,275.875 184.125,278.125 C188.458333,279.625 192.458333,279.625 196.125,278.125 L189,284.25 Z" id="Path-27" fill="#233A57"></path>
                </g>
            </g>
        </g>
    </g>
</svg>