<?xml version="1.0" encoding="UTF-8"?>
<svg width="850px" height="507px" viewBox="0 0 850 507" version="1.1" xmlns="http://www.w3.org/2000/svg" xmlns:xlink="http://www.w3.org/1999/xlink">
    <!-- Generator: Sketch 51.1 (57501) - http://www.bohemiancoding.com/sketch -->
    <title>heroimg</title>
    <desc>Created with Sketch.</desc>
    <defs></defs>
    <g id="new" stroke="none" stroke-width="1" fill="none" fill-rule="evenodd">
        <g id="heroimg" transform="translate(-58.000000, -16.000000)">
            <g id="Group" transform="translate(58.000000, 53.000000)">
                <polygon id="Path-86" fill="#E8EAEF" fill-rule="nonzero" points="163.276346 367.822878 112.407126 367.822878 66.457529 422.01107 354.442953 426.937269 396.283784 367.822878"></polygon>
                <polygon id="Path-87" fill="#DFE2EC" fill-rule="nonzero" points="375.775406 445 850 418.72373 698.217491 363.717712 284.700772 387.527675"></polygon>
                <polygon id="Path-75" fill="#DFE2EC" fill-rule="nonzero" points="213.320463 397.380074 96.8164222 387.527675 54.1529705 397.380074 0 410.513398 106.660232 426.937269"></polygon>
                <polygon id="Path-76" fill="#DFE2EC" fill-rule="nonzero" points="164.095869 350.581181 98.4555985 387.527675 173.938224 408.053506 241.216216 362.896679"></polygon>
                <path d="M259.266409,173.613463 L259.266409,260.146174 C259.391832,268.834659 260.485783,273.892653 262.548263,275.320156 C264.610742,276.747658 268.850337,275.381167 275.267046,271.220682 C343.364434,247.981249 377.413127,236.361533 377.413127,236.361533 C377.413127,236.361533 377.413127,218.452966 377.413127,182.635831 L351.570135,128.503226 C346.563909,121.338425 341.367642,117.920861 335.981332,118.250535 C330.595023,118.58021 322.390389,122.817989 311.367433,130.963872 L259.266409,173.613463 Z" id="Path-66" fill="#FFFFFF" fill-rule="nonzero"></path>
                <path d="M195.020784,141.217712 C195.020784,141.217712 202.095551,219.52109 204.465822,236.441254 C206.046002,247.721363 208.851869,258.484304 212.883422,268.730075 L218.222723,277.368867 C209.598994,274.489538 202.549437,273.049873 197.074053,273.049873 C188.860978,273.049873 185.483216,279.321141 177.362672,277.368867 C155.93297,272.216916 156.826774,263.380339 136.295689,266.672608 C122.608299,268.867454 90.5773033,275.449314 40.2027027,286.418189 L73.0550057,297.522567 L121.104707,289.708851 L73.0550057,309.451218 L110.836758,320.970143 C134.381978,313.017709 144.511438,310.13838 141.225138,312.332155 C136.295689,315.622817 143.752278,325.753086 170.792211,328.374134 C177.505917,329.02491 170.935457,321.381476 183.933132,318.913479 C192.422019,317.301611 205.697783,315.622817 208.983013,320.970143 C212.268244,326.31747 224.410974,321.289349 230.338614,320.970143 C248.6616,319.983443 264.809162,312.488995 268.117159,306.162163 C277.149938,288.886185 265.937104,273.294043 263.189313,255.156896 C260.441522,237.01975 260.327517,203.169559 260.316341,202.300632 C260.123432,187.302145 260.123432,176.538937 260.316341,170.011008 C248.875924,176.705807 241.346736,180.202136 237.728778,180.499994 C234.110821,180.797852 231.647432,175.793303 230.338614,165.486347 C206.793394,149.307257 195.020784,141.217712 195.020784,141.217712 Z" id="Path-96" fill="#D55A4B" fill-rule="nonzero"></path>
                <path d="M395.46332,192.121771 C411.599099,192.121771 440.588803,208.268758 482.432432,240.562731 L572.809817,306.635105 C600.946008,326.062618 616.106772,339.470339 618.292107,346.858266 C621.57011,357.940157 618.700257,371.075854 599.03224,375.178655 C585.920228,377.913856 564.613743,374.083078 535.112784,363.686323 L390.880659,291.44881 L329.826255,263.947698 C355.713886,230.060372 373.419127,210.242211 382.941976,204.493216 C388.443717,201.171785 390.976572,192.121771 395.46332,192.121771 Z" id="Path-68" fill="#0E2440" fill-rule="nonzero"></path>
                <path d="M350.097676,236.457565 L413.748259,290.194118 L436.823428,312.184067 C456.464844,334.852136 464.577629,349.345191 461.161782,355.66323 C456.038013,365.140289 443.987501,372.749077 416.446378,372.749077 C416.446378,372.749077 359.839924,364.817215 342.636221,354.481732 C322.084334,342.134757 292.329949,331.278401 280.803244,317.456927 C273.118774,308.242611 267.854243,293.589798 265.009653,273.498488 L350.097676,236.457565 Z" id="Path-69" fill="#233A57" fill-rule="nonzero" transform="translate(363.465251, 304.603321) rotate(-355.000000) translate(-363.465251, -304.603321) "></path>
                <path d="M550.530888,291.056509 C551.352314,284.761764 554.35692,281.614391 559.544707,281.614391 C564.732493,281.614391 577.157897,288.182821 596.820918,301.319682 L616.895187,321.845018 C620.125513,329.736519 621.490467,334.936396 620.990049,337.444649 C620.489631,339.952902 619.124677,342.68968 616.895187,345.654982 L550.530888,291.056509 Z" id="Path-72" fill="#D55A4B" fill-rule="nonzero"></path>
                <path d="M392.181467,177.343173 C394.647602,183.225524 396.718383,186.566938 398.393809,187.367416 C405.098361,190.570689 408.471631,191.863576 410.401963,193.504708 C419.305159,201.074034 416.199393,205.165561 410.401963,220.50879 C406.537009,230.737609 401.567783,236.8749 395.494285,238.920664 L392.181467,177.343173 Z" id="Path-67" fill="#FFFFFF" fill-rule="nonzero"></path>
                <path d="M303.658886,342.370849 C296.027716,349.824461 290.714311,353.551267 287.71867,353.551267 C283.225208,353.551267 267.288184,342.370849 267.288184,342.370849 C267.288184,342.370849 256.663501,342.370849 235.414136,342.370849 L220.704633,359.350978 L220.704633,368.048117 L224.789453,368.048117 L228.87587,359.350978 L244.402656,350.652221 L235.414136,359.350978 L224.789453,375.088659 L224.789453,382.957499 L228.87587,382.957499 L231.736361,386.270695 L235.414136,389.169742 L244.402656,375.088659 L262.18176,363.492473 C269.944887,361.973925 272.736739,361.973925 270.557317,363.492473 C268.377895,365.011021 263.746623,368.876416 256.663501,375.088659 L251.759802,382.957499 L246.857698,386.270695 L251.759802,389.169742 L256.663501,386.270695 L270.557317,375.088659 C275.190717,373.155961 278.596596,372.189612 280.774954,372.189612 C282.953312,372.189612 285.267884,375.778908 287.71867,382.957499 L301.20544,382.957499 L325.723938,359.350978 L303.658886,342.370849 Z" id="Path-73" fill="#F2E2DF" fill-rule="nonzero"></path>
                <path d="M321.710666,73.8929889 C346.394389,80.2203294 363.810347,89.0546245 373.95854,100.395874 C384.106733,111.737124 393.843513,139.165129 403.16888,182.679889 L411.810165,239.255875 C415.691231,251.866702 406.776741,272.143957 385.066698,300.087638 C363.356654,328.03132 340.345595,350.609733 316.033522,367.822878 L291.264479,346.872376 L324.704299,320.581549 C349.019548,287.794815 362.557736,268.921691 365.318862,263.962177 C369.460552,256.522906 369.107367,247.182301 369.981007,239.255875 C371.268117,227.578097 365.874212,199.414392 353.799291,154.76476 L324.704299,100.395874 L321.710666,73.8929889 Z" id="Path-64" fill="#FFFFFF" fill-rule="nonzero"></path>
                <path d="M344.528298,91.9557196 L344.528298,104.663029 C344.734134,107.426111 344.460665,109.338918 343.707891,110.401452 C342.57873,111.995253 341.392034,118.354775 340.115507,119.521447 C329.476919,129.2445 324.780953,143.74154 309.833061,153.849515 C289.420545,167.652747 259.246478,175.935106 254.810521,177.211495 C246.736378,179.534724 276.642304,151.116132 344.528298,91.9557196 Z" id="Path-94" fill="#D55A4B" fill-rule="nonzero"></path>
                <path d="M249.006329,142.511971 C283.187799,126.934081 300.278535,119.145135 300.278535,119.145135 C300.278535,119.145135 305.133523,94.4823657 314.843501,45.1568266 C324.987137,49.109297 331.481286,51.842073 334.325946,53.3551545 C337.170605,54.868236 338.880266,61.0853014 339.454929,72.0063507 C341.504813,75.1490431 344.102152,78.0867773 347.246945,80.8195533 C347.942091,81.4236244 350.755593,81.3060569 351.759441,81.9468234 C353.165236,82.8441567 353.530027,84.4648417 354.626607,84.9187172 C356.353634,85.6335357 357.458463,84.1981188 359.039921,84.9187172 C360.603043,85.6309607 360.688893,87.5619153 361.808707,88.812923 C365.294524,92.7071288 356.897228,100.45272 354.626607,102.494385 C349.330217,107.256717 340.459791,109.086168 335.762413,113.202949 C313.559923,132.661205 318.010514,141.660697 302.946375,155.834254 C292.903616,165.283292 280.461172,173.071704 265.619043,179.199489 C254.5439,184.052312 243.673853,186.443491 233.008901,186.373026 C227.47151,186.336439 211.327915,186.171287 208.192778,184.323444 C205.626884,182.811111 199.678455,168.873953 190.34749,142.511971 L190.34749,96.1914182 L249.006329,142.511971 Z" id="Path-93" fill="#F06D5D" fill-rule="nonzero"></path>
                <path d="M214.867104,323.335332 L201.489878,322.401201 C192.253425,319.840991 186.338408,318.560886 183.744827,318.560886 C181.151247,318.560886 175.138625,320.152368 165.706962,323.335332 L155.626674,332.468243 L150.144788,337.865443 L155.626674,338.904177 L163.231272,334.337316 L178.792065,329.977228 L195.680502,337.865443 C204.275814,341.751577 210.671348,344.035278 214.867104,344.716546 C219.062861,345.397814 224.662867,343.114113 231.667124,337.865443 L241.216216,324.788424 L214.867104,323.335332 Z" id="Path-74" fill="#F2E2DF" fill-rule="nonzero"></path>
                <path d="M238.966096,180.524376 C227.914683,178.591075 210.44447,137.390785 216.963699,172.71925 C221.309851,196.271561 226.198212,220.097735 231.62878,244.197773 L223.482928,301.709229 L210.03861,323.069022 C220.628112,330.463352 227.824836,334.160517 231.62878,334.160517 C235.432725,334.160517 239.914695,330.463352 245.07469,323.069022 C252.682579,307.187045 256.486523,298.42393 256.486523,296.779675 C256.486523,295.135421 260.968493,280.620625 269.932432,253.235288 L261.580466,180.524376 C253.871828,181.813244 246.333705,181.813244 238.966096,180.524376 Z" id="Path-65" fill="#FFFFFF" fill-rule="nonzero"></path>
                <path d="M255.293631,59.9354244 C255.293631,59.9354244 267.504904,62.6594118 291.927448,68.1073866 L305.923873,81.9997223 C306.334658,92.7203275 305.583776,103.002592 303.671226,112.846516 C300.802401,127.612402 284.822608,145.864678 272.736734,149.351068 C264.679485,151.675328 253.958803,149.487789 240.57469,142.788452 L225.2386,124.900928 C221.122004,111.009656 219.063707,101.88483 219.063707,97.5264505 C219.063707,93.1680707 219.063707,85.9495041 219.063707,75.8707507 C243.21699,65.2471998 255.293631,59.9354244 255.293631,59.9354244 Z" id="Path-62" fill="#F2E2DF" fill-rule="nonzero"></path>
                <ellipse id="Oval-2" fill="#0E2440" cx="239.57529" cy="118.228782" rx="5.74324324" ry="5.74723247"></ellipse>
                <ellipse id="Oval-2" fill="#0E2440" cx="283.059846" cy="98.5239852" rx="5.74324324" ry="5.74723247"></ellipse>
                <path d="M227.132484,7.75397873 C253.038449,-3.60902416 271.731727,-0.869357244 286.94096,5.7008035 C302.150192,12.2709642 307.905037,24.5900156 312.017051,34.1132907 C314.043231,38.80585 315.694641,43.9266021 316.971281,49.475547 C318.216003,54.8857603 318.898878,55.9334455 322.703209,59.2886771 C322.800762,59.3747138 334.008974,59.3495024 332.56946,62.779075 C331.129946,66.2086475 327.944228,68.5279656 325.375904,71.1970934 C322.80758,73.8662212 338.426267,101.481428 336.165435,112.979209 C335.175903,118.011613 329.794,127.86473 324.291456,129.712588 C318.788911,131.560445 317.780282,129.417693 318.183026,124.887626 C318.532024,120.962092 317.154903,117.528619 316.880703,117.650641 C316.12268,117.987971 317.18241,122.75149 315.099396,127.04346 C312.480691,132.439198 306.915859,137.084486 305.233145,135.461478 C299.27277,129.712588 308.3169,117.650641 299.27277,110.002105 C286.213673,98.9581494 295.781435,74.7371998 284.474598,73.6609037 C276.936706,72.943373 271.31865,70.4592876 267.620428,66.2086475 C263.784864,76.2573463 258.509822,84.2850048 251.795301,90.2916231 C241.72352,99.3015505 233.709175,103.637262 229.598043,101.994722 C228.692807,101.633049 226.621583,98.8339135 227.132484,92.9607509 C227.412836,89.7379021 224.665319,84.8176743 224.665319,99.7362291 C224.665319,114.259659 227.131936,110.002105 233.914705,125.811555 C240.697475,141.621004 226.627205,157.360619 222.19976,162.563391 C217.540541,168.038525 209.798904,168.038525 198.974851,162.563391 C195.436402,159.797116 192.969773,155.34857 191.574962,149.217752 C189.482746,140.021526 194.86505,127.04346 194.86505,117.650641 C194.86505,108.257823 186.846965,82.1606169 189.1086,64.0109801 C191.818084,42.2673435 201.226518,19.1169816 227.132484,7.75397873 Z" id="Path-63" fill="#0E2440" fill-rule="nonzero"></path>
                <path d="M229.148403,75.5350554 C224.588446,86.9705618 221.964739,94.437135 221.277282,97.9347748 C220.142395,103.708848 223.526022,111.038157 231.428163,119.922702 C240.268809,134.718317 243.583917,148.41796 241.373485,161.021632 C238.057838,179.92714 218.790345,177.871391 218.790345,173.761498 C218.790345,169.651605 223.348246,157.939212 221.277282,153.007341 C219.896639,149.719426 214.509489,141.466767 205.11583,128.249363 C208.707444,97.9019015 210.503251,82.7281708 210.503251,82.7281708 C210.503251,82.7281708 216.718301,80.3304656 229.148403,75.5350554 Z" id="Path-91" fill="#0E2440" fill-rule="nonzero"></path>
                <path d="M315.571353,46.798893 C324.429908,52.3986809 326.133579,60.3203322 320.682365,70.5638467 C316.060077,79.2497056 316.399167,102.96297 287.563009,124.854474 C278.567628,131.683483 262.894391,137.556165 240.543297,142.472518 C239.542746,150.941024 243.631023,155.175277 252.808128,155.175277 C261.985234,155.175277 278.612793,150.941024 302.690805,142.472518 C315.697727,131.831851 325.034108,123.432436 330.699948,117.274273 C336.365788,111.11611 341.8178,103.569921 347.055985,94.6357057 L336.42508,61.1398133 L315.571353,46.798893 Z" id="Path-95" fill="#F06D5D" fill-rule="nonzero"></path>
                <path d="M369.822448,240.509503 C366.402768,253.113065 362.161573,260.376078 357.098864,262.298542 C349.5048,265.182238 311.123991,263.785854 294.702791,269.553246 C278.28159,275.320638 270.27864,285.207596 269.04717,283.971726 C268.680642,283.603889 267.28582,282.771478 266.782927,279.852161 C266.556038,278.535054 269.460355,276.464628 269.04717,273.260051 C268.91279,272.217831 265.558006,273.260051 263.916046,269.553246 C262.821406,267.082043 263.368726,264.663809 265.558006,262.298542 L351.350401,221.148348 C358.73471,215.581627 363.660589,213.041228 366.128039,213.527152 C368.595488,214.013075 370.989745,217.995054 373.310811,225.473088 L369.822448,240.509503 Z" id="Path-97" fill="#FFFFFF" fill-rule="nonzero"></path>
            </g>
        </g>
    </g>
</svg>