<?xml version="1.0" encoding="UTF-8"?>
<svg width="657px" height="600px" viewBox="0 0 657 600" version="1.1" xmlns="http://www.w3.org/2000/svg" xmlns:xlink="http://www.w3.org/1999/xlink">
    <!-- Generator: Sketch 51.1 (57501) - http://www.bohemiancoding.com/sketch -->
    <title>coffee</title>
    <desc>Created with Sketch.</desc>
    <defs>
        <path d="M375.095483,199.611574 C367.343579,185.486804 361.015667,177.677138 356.111749,176.182575 C351.39117,174.743888 337.311641,172.518239 313.873162,169.505626 C312.962848,169.388621 312.018944,168.99525 311.099869,169.151049 C310.180794,169.306849 309.353041,168.654423 307.322486,170.342954 C305.29193,172.031484 305.472019,174.818296 308.657667,175.30922 C312.22065,175.858295 315.59125,176.42395 318.769466,177.006186 C311.200261,177.828274 307.732413,179.199463 308.365923,181.119753 C308.999433,183.040042 311.144609,184.560377 314.80145,185.680757 L311.099869,188.867129 C308.151151,189.429973 306.047507,190.075587 304.788938,190.803973 C302.901085,191.896552 300.868737,197.464328 307.322486,197.109958 C309.873938,196.96986 313.90418,197.068141 318.769466,196.366192 C320.995477,196.04503 324.77211,195.257869 330.099364,194.004711 C321.439435,195.511249 315.751606,196.546332 313.035876,197.109958 C308.962281,197.955397 307.872483,200.005267 308.657667,200.694957 C309.423585,201.367724 317.52048,201.367724 332.948351,200.694957 L347.638342,205.087049 L356.929069,221.291994 L375.095483,199.611574 Z" id="path-1"></path>
        <filter x="-4.2%" y="-5.7%" width="116.6%" height="119.2%" filterUnits="objectBoundingBox" id="filter-2">
            <feOffset dx="6" dy="4" in="SourceAlpha" result="shadowOffsetOuter1"></feOffset>
            <feColorMatrix values="0 0 0 0 0   0 0 0 0 0   0 0 0 0 0  0 0 0 0.1 0" type="matrix" in="shadowOffsetOuter1"></feColorMatrix>
        </filter>
    </defs>
    <g id="new" stroke="none" stroke-width="1" fill="none" fill-rule="evenodd">
        <g id="laptop" transform="translate(-61.000000, 0.000000)">
            <g id="Group" transform="translate(390.000000, 322.000000) scale(-1, 1) translate(-390.000000, -322.000000) translate(109.000000, 57.000000)">
                <path d="M244.029872,71.268844 C297.287205,90.8885126 230.816388,136.009421 271.850867,136.009421 C349.415536,136.009421 448.016347,137.187463 508.195105,203.704508 C535.540654,233.930208 485.905912,252.036394 483.164824,269.92234 C481.461151,281.039028 502.575792,294.276293 508.195105,297.181409 C532.376176,309.682725 557.59243,334.590562 560.394331,367.106447 C560.538725,368.782128 260.866469,423.067606 234.491245,411.604198 C175.237531,385.850882 156.976604,360.815341 175.516047,305.238517 C182.23279,285.103322 157.949548,271.115498 148.646708,246.326837 C139.343868,221.538175 95.3862691,217.363905 95.3862691,187.526237 C95.3862691,157.688568 129.566349,173.37668 129.566349,148.590705 C129.566349,123.80473 103.335125,123.80473 109.694209,95.3523238 C116.053294,66.8999179 190.772538,51.6491754 244.029872,71.268844 Z" id="Path-107" fill="#DFE2EC" fill-rule="nonzero"></path>
                <g id="Group-18" transform="translate(104.130010, 240.764618)">
                    <path d="M24.4011222,19.7886966 L17.020396,13.0538335 C10.5969843,6.85746455 6.64602985,3.4332232 5.1675325,2.78110945 C2.94978648,1.80293881 1.84124298,4.35754488 1.77119613,6.3279418 C1.3585743,17.934871 1.44294374,24.7214049 2.02430444,26.6875435 C2.70435717,28.9874547 2.70435717,32.475732 2.02430444,37.1523755 C0.365971855,43.2383942 -0.273467434,47.5403862 0.105986571,50.0583516 C0.485440577,52.576317 2.17262255,56.7950995 5.1675325,62.7146989 C3.240786,66.6782896 2.19304331,70.9358087 2.02430444,75.4872564 C1.85556557,80.038704 2.16446485,84.7532082 2.95100227,89.630769 C2.36464984,99.5555501 2.36464984,104.719713 2.95100227,105.123259 C35.0991117,127.248551 54.7587812,124.659503 56.5847508,124.659503 C58.4606766,124.659503 64.1655304,123.433908 73.6993123,120.982718 L114.416209,106.933286 C130.637275,102.976399 139.54229,100.052167 141.131254,98.160591 C142.720217,96.2690145 157.518034,95.3232263 185.524704,95.3232263 L210.143562,101.311741 C217.429078,102.702797 221.414531,103.050561 222.09992,102.355033 C222.785309,101.659505 223.128003,96.3508587 223.128003,86.4290941 L219.670229,85.2333413 L227.337275,82.3144279 C225.146521,78.8846529 222.977704,77.1697654 220.830824,77.1697654 C218.683945,77.1697654 216.646751,77.1697654 214.719243,77.1697654 L182.943824,70.1813921 C178.690975,65.518931 174.993373,63.1877004 171.85102,63.1877004 C168.708666,63.1877004 162.760725,63.1877004 154.007195,63.1877004 L146.228092,63.1877004 C135.105939,51.4972734 125.650123,45.6520599 117.860644,45.6520599 C110.071165,45.6520599 99.624025,47.1208238 86.5192252,50.0583516 L76.8849473,53.0623594 L73.6993123,53.0623594 C73.3123606,46.9500375 72.8742098,42.1086613 72.3848599,38.5382309 C71.89551,34.9678005 71.2163479,31.6569559 70.3473735,28.6056972 L72.3848599,13.0538335 L73.6993123,2.78110945 C74.5790419,-0.38502995 72.1976951,0.0216116594 66.5552717,4.00103427 C60.9128484,7.98045689 56.1900831,12.5841207 52.386976,17.8120258 C46.186017,17.5143356 40.9781776,17.5143356 36.7634579,17.8120258 C32.5487381,18.1097159 28.4279596,18.7686062 24.4011222,19.7886966 Z" id="Path-130" fill="#0E2440"></path>
                    <path d="M2.30439532,105.340173 C2.99275612,101.323049 6.88032151,100.639131 13.9670915,103.28842 C21.0538615,105.937708 27.5466813,109.028743 33.4455509,112.561525 C35.185574,114.714556 37.0678106,118.63368 39.0922606,124.318897 C41.1167105,130.004113 42.1289355,134.581538 42.1289355,138.051171 C39.3207438,143.876984 37.2333662,147.067509 35.8668027,147.622745 C34.5002392,148.177982 30.9859782,148.765502 25.3240196,149.385307 L18.3144766,147.622745 L15.5182809,141.464763 L17.1668937,132.368635 C16.0261985,131.791355 14.2936446,130.921564 11.9692319,129.759261 C9.6448191,128.596958 6.97682348,128.015807 3.965245,128.015807 L0.768131774,124.318897 C-0.256043925,117.243801 -0.256043925,112.521312 0.768131774,110.151429 C1.79230747,107.781546 2.30439532,106.177794 2.30439532,105.340173 Z" id="Path-131" fill="#0E2440"></path>
                    <ellipse id="Oval-3" fill="#FFFFFF" cx="19.4746966" cy="44.8950525" rx="3.57698509" ry="3.57571214"></ellipse>
                    <ellipse id="Oval-3" fill="#FFFFFF" cx="52.0650052" cy="44.1004498" rx="3.57698509" ry="3.57571214"></ellipse>
                </g>
                <g id="Group-16">
                    <polygon id="Path-119" fill="#FFFFFF" points="263.846927 150.056005 238.06045 188.652364 227.222895 316.963034 216.892693 359.437948 377.960981 347.039484 392.521131 204.129047 368.544916 130.353904"></polygon>
                    <g id="Group-15" transform="translate(0.000000, 353.546603)">
                        <path d="M126.308198,43.0347979 C174.6767,49.1871686 199.191765,52.2633539 199.853394,52.2633539 C200.845837,52.2633539 205.249203,55.0216958 204.174056,55.5923873 C203.457291,55.9728482 188.757459,63.8283101 160.07456,79.1587728 L133.032886,73.3836926 L126.308198,43.0347979 Z" id="Path-115" fill="#243A55"></path>
                        <polygon id="Path-116" fill="#0E2440" points="139.94466 55.2119263 181.157559 61.4570343 155.84704 74.2199141 138.38373 64.7159202"></polygon>
                        <path d="M194.052265,22.6293472 L166.345949,29.860909 L152.99264,29.860909 L131.539685,46.0087943 C141.672749,45.167915 148.823734,43.5952705 152.99264,41.2908609 L146.359516,53.3484691 C153.300355,53.5206491 157.69742,52.340415 159.550712,49.8077667 C161.404004,47.2751184 163.669083,44.9601978 166.345949,42.8630048 L189.062786,38.8252827 C179.626208,42.2859014 174.847877,44.6804052 174.727793,46.0087943 C174.607709,47.3371833 174.667751,49.7837416 174.907918,53.3484691 L190.63138,47.7461109 C202.619737,46.7160338 208.613916,43.7424244 208.613916,38.8252827 C208.613916,33.908141 212.085586,22.6653849 219.028927,5.09701432 L196.343612,0.383585665 L194.052265,22.6293472 Z" id="Path-100" fill="#F2E2DF"></path>
                        <path d="M42.8867458,57.3678717 L0.740684933,2.72482414 C-0.0938454196,1.85187762 -0.0938454196,1.35225841 0.740684933,1.22596651 C1.57521529,1.09967461 35.1118993,6.95744809 101.350737,18.7992869 C103.495678,19.494685 104.743994,20.1081783 105.095685,20.6397668 C105.447376,21.1713553 122.397148,39.7294446 155.945,76.3140346 C158.040693,78.6607389 158.919653,80.0005427 158.58188,80.333446 C158.07522,80.832801 155.526664,81.332156 153.330602,80.832801 C151.86656,80.4998977 115.051942,72.6782546 42.8867458,57.3678717 Z" id="Path-114" fill="#243A55"></path>
                    </g>
                    <path d="M271.772452,130.501057 C253.144918,139.382411 242.241379,146.537981 239.061837,151.967766 C235.882295,157.397551 228.656695,182.148845 217.385037,226.221649 L211.04212,280.575485 L194.349523,357.571214 L217.385037,366.606444 L241.645215,269.767616 C244.034283,238.402933 247.147584,213.902683 250.985121,196.266867 C254.822657,178.631051 260.76558,165.225019 268.81389,156.048772 L271.772452,130.501057 Z" id="Path-101" fill="#FFFFFF"></path>
                    <path d="M369.498767,128.377837 C387.200962,134.160021 398.540867,148.313935 403.518484,170.83958 C408.4961,193.365225 409.252968,233.09536 405.789087,290.029985 L401.019773,299.565217 L372.235175,304.831849 L379.16042,244.34033 L369.498767,128.377837 Z" id="Path-102" fill="#FFFFFF"></path>
                    <path d="M312.369754,168.396183 L261.620875,168.396183 C260.746766,176.778448 262.171259,184.018268 265.894354,190.115644 C269.61745,196.21302 274.782626,199.554514 281.389882,200.140126 L294.008691,200.140126 C300.98193,199.481632 305.988258,195.876112 309.027675,189.323566 C312.067091,182.77102 313.181117,175.795226 312.369754,168.396183 Z" id="Path-105" fill="#233A57"></path>
                    <g id="Path-104">
                        <use fill="black" fill-opacity="1" filter="url(#filter-2)" xlink:href="#path-1"></use>
                        <use fill="#F2E2DF" fill-rule="evenodd" xlink:href="#path-1"></use>
                    </g>
                    <path d="M356.664134,341.835042 C476.583735,338.264308 537.473183,337.074063 539.332479,338.264308 C542.121424,340.049675 562.133375,354.527814 559.125278,363.591291 C557.11988,369.633609 532.321592,376.093364 484.730414,382.970555 L303.998418,400.837738 L339.061362,332.664953 L356.664134,341.835042 Z" id="Path-110" fill="#0E2440"></path>
                    <polygon id="Path-108" fill="#F2E2DF" points="432.330813 348.821273 464.106036 392.173679 421.687965 406.907085 407.806287 369.54802"></polygon>
                    <polygon id="Path-103" fill="#FFFFFF" points="408.06897 260.493486 378.180134 195.280295 353.939735 225.927341 373.558412 271.894908 397.650207 279.841217"></polygon>
                    <path d="M222.170519,359.16042 C245.2222,335.587206 263.239607,316.649175 276.222738,302.346327 C295.697434,280.892054 351.339425,235.997001 356.903624,232.421289 C362.467823,228.845577 377.694472,226.285884 389.891375,235.5997 C398.022644,241.808911 410.265153,267.331851 426.618902,312.16852 L471.866446,376.815619 C457.881697,360.42448 446.561305,353.802556 437.90527,356.949847 C424.921219,361.670783 411.260195,378.859256 411.260195,387.029299 C411.260195,392.475995 414.603248,400.932495 421.289355,412.398801 C399.82848,386.441779 384.328211,366.974013 374.788549,353.995502 C365.248887,341.016992 360.612055,330.952024 360.878052,323.8006 L314.84498,400.81071 C294.925979,423.633555 276.62018,435.044978 259.927583,435.044978 C234.888688,435.044978 220.580747,428.688156 210.247235,408.823088 C203.358227,395.57971 207.332654,379.025487 222.170519,359.16042 Z" id="Path-106" fill="#233A57"></path>
                    <path d="M459.680951,388.045862 C487.911632,414.244257 503.222306,427.647773 505.612972,428.256409 C509.198972,429.169364 530.456908,443.016844 538.137535,442.593703 C545.818162,442.170563 549.49881,442.453795 551.65059,446.169415 C553.80237,449.885035 543.753355,458.029481 540.144543,459.730428 C536.535732,461.431374 526.693668,467.845306 516.15332,465.285129 C505.612972,462.724952 494.80844,450.376039 472.129129,449.91806 C449.449819,449.460081 435.974925,459.735325 427.358918,454.826693 C418.742912,449.91806 413.67688,437.605185 418.742912,430.089826 C423.808943,422.574468 424.088138,408.678938 423.808943,406.968649 C423.622814,405.828457 421.934136,402.434408 418.742912,396.786502 L451.807963,375.398137 L459.680951,388.045862 Z" id="Path-109" fill="#F06D5D"></path>
                    <polygon id="Path-112" fill="#F2E2DF" points="376.986802 434.340771 326.853352 434.340771 330.220949 402.102811 361.631847 402.102811"></polygon>
                    <path d="M535.752878,338.50075 L454.656949,363.687392 L378.06784,388.461394 C376.568234,389.241327 374.779612,389.756402 372.701974,390.006617 C369.585518,390.381941 368.815337,388.962934 365.548004,390.006617 C362.280671,391.050301 363.1359,393.061251 360.850404,393.652004 C358.564908,394.242757 357.909219,391.7805 354.618328,392.831709 C351.327437,393.882918 352.133324,395.043428 349.550932,395.811469 C346.96854,396.579511 345.8981,394.909636 342.595683,396.407421 C340.394072,397.405945 339.301104,399.260018 339.31678,401.96964 C346.525527,408.427068 351.891135,413.49266 355.413601,417.166417 C358.936068,420.840174 361.188244,426.601043 362.170129,434.449025 C363.035918,435.705577 364.459959,436.268421 366.442251,436.137556 C369.415688,435.94126 370.132126,433.91149 372.701974,433.753748 C375.271823,433.596007 375.964963,435.948123 378.06784,436.137556 C380.170717,436.32699 379.51121,435.103895 382.574909,434.643132 C385.638607,434.18237 387.390485,434.730446 389.295211,434.449025 C393.206093,433.871198 396.011283,432.768369 399.231669,433.058471 C404.020487,433.489862 410.573269,435.108541 418.890014,437.914508 C491.125372,414.991539 532.855964,400.538926 544.08179,394.556671 C560.920529,385.583287 566.910125,363.360946 556.809583,346.60042 C552.170681,339.84009 545.151779,337.140199 535.752878,338.50075 Z" id="Path-111" fill="#233A57"></path>
                    <path d="M332.696925,402.167903 L337.627648,434.570591 C336.220107,435.482801 334.576533,435.938906 332.696925,435.938906 C329.877514,435.938906 329.848146,434.746333 327.8903,434.570591 C325.932454,434.394849 325.726915,435.834783 324.015233,435.938906 C322.874111,436.008321 321.635122,435.688026 320.298265,434.978021 L291.027482,439.415292 C266.982193,437.958521 252.641132,438.885557 248.0043,442.196402 C241.049051,447.162669 227.734718,452.128936 227.734718,438.024738 C227.734718,423.92054 234.492021,409.22039 244.427315,405.843328 C254.362608,402.466267 265.388412,405.843328 265.889225,405.843328 C275.359833,405.843328 280.62595,403.194653 281.687576,397.897301 C287.715458,389.818841 293.71022,388.792479 299.671862,394.818216 C304.162007,399.356636 311.514995,401.866592 321.730826,402.348084 C322.667614,402.392237 322.667614,401.373688 324.015233,401.373688 C325.362852,401.373688 325.460501,402.424311 326.793481,402.424311 C328.126462,402.424311 327.691579,401.373688 329.579432,401.373688 C330.838001,401.373688 331.877165,401.638426 332.696925,402.167903 Z" id="Path-113" fill="#F06D5D"></path>
                    <path d="M285.588441,65.6122056 C284.522707,86.03329 284.522707,98.4638165 285.588441,102.903785 C287.187041,109.563738 307.890315,122.369689 312.778039,122.749952 C317.665763,123.130216 348.678424,112.748743 358.577968,91.8491406 C368.477512,70.9495378 365.640547,47.1211433 352.647789,38.5781997 C343.985951,32.882904 332.171437,30.0352562 317.204247,30.0352562 L299.437233,32.0541642 L285.588441,65.6122056 Z" id="Path-99" fill="#F2E2DF" transform="translate(324.649588, 76.397644) rotate(-4.000000) translate(-324.649588, -76.397644) "></path>
                    <ellipse id="Oval-2" fill="#0E2440" cx="295.153565" cy="80.3075534" rx="4.76931346" ry="4.76761619"></ellipse>
                    <ellipse id="Oval-2" fill="#0E2440" cx="336.487615" cy="80.3075534" rx="4.76931346" ry="4.76761619"></ellipse>
                    <polygon id="Path-117" fill="#C9310B" points="265.789088 97.2026462 276.243697 95.2518345 276.243697 104.911224 268.898768 103.690996"></polygon>
                    <path d="M298.385754,45.7732891 C299.858866,52.912241 303.627128,58.7126631 309.690542,63.1745553 C314.568073,66.763791 315.000893,67.5511113 324.1418,70.2971895 C333.282707,73.0432676 340.358048,73.3288311 342.127862,72.6319266 C343.324996,72.1605275 343.915055,70.1252005 343.660506,66.1718402 C343.490806,63.5362667 342.673627,60.9325771 341.20897,58.3607713 C343.727024,61.194591 345.404149,63.8433325 346.240343,66.3069957 C348.809734,73.8771389 348.495388,75.4887547 346.985838,84.5234444 C345.476289,93.558134 344.809755,121.458492 344.809755,126.030815 C344.809755,130.603137 335.415931,147.484238 342.146426,155.782835 C344.104837,158.197526 346.662675,162.534148 351.131132,164.707776 C354.40334,166.299503 358.478982,166.883033 361.675181,167.050479 C363.805981,167.16211 365.14169,166.85491 365.682307,166.128878 C362.785235,163.596811 361.366861,160.285907 361.427185,156.196168 C361.48751,152.106428 362.019601,147.152031 363.023458,141.332977 C362.604628,148.331437 362.756967,153.520614 363.480475,156.900508 C364.203982,160.280401 365.830947,163.403309 368.361369,166.269232 C372.79555,168.996936 375.831131,170.560914 377.468111,170.961168 C385.002192,172.803307 394.023429,174.016643 399.061813,169.009132 C404.100198,164.001622 392.818411,155.249052 396.881473,153.677274 C400.944536,152.105496 405.497141,148.757713 399.43636,139.090799 C398.561442,137.695309 397.476706,135.405374 396.182153,132.220995 C390.530925,109.034756 387.505665,97.0496651 387.106374,96.265722 C386.507437,95.0898074 400.894997,70.750977 388.548898,43.3439029 C376.202799,15.9368288 370.942494,9.98493605 344.005314,5.02233145 C317.068133,0.0597268574 298.302852,8.80259717 286.389629,24.5232228 C274.746772,39.887076 279.022301,56.2915609 272.017654,64.3836782 C265.013007,72.4757955 261.635471,83.0913829 261.66099,87.31405 C261.722751,97.5338173 275.986746,106.76322 271.9608,110.675809 C267.934855,114.588398 262.998297,117.706862 261.313518,129.258315 C259.62874,140.809767 269.565054,159.018118 277.608327,156.764027 C282.970509,155.2613 288.074635,153.01179 292.920707,150.015499 C284.722314,146.800314 280.71935,142.967647 280.911814,138.517497 C285.850766,142.35271 290.407663,144.270316 294.582504,144.270316 L300.912045,135.970504 C287.948971,107.902287 283.108165,89.4536627 286.389629,80.6246309 C288.122142,75.9631705 293.702292,69.8821131 295.834671,63.6662864 C297.105639,59.9614529 297.956,53.9971205 298.385754,45.7732891 Z" id="Path-118" fill="#0E2440" transform="translate(331.750316, 88.096577) rotate(-3.000000) translate(-331.750316, -88.096577) "></path>
                    <path d="M260.722469,148.731933 L311.845876,153.118543 L384.725395,147.398801 C350.628116,158.199914 325.191519,163.364831 308.415604,162.893553 C291.639688,162.422275 277.66295,160.899287 266.485389,158.324588 C264.780763,157.698493 263.522194,156.709122 262.709683,155.356476 C261.897171,154.00383 261.234767,151.795649 260.722469,148.731933 Z" id="Path-120" fill="#C9310B"></path>
                    <path d="M363.46143,95.7496252 C344.267348,101.151589 334.448106,109.142724 321.133773,109.142724 C312.25755,109.142724 301.713397,108.092125 289.501312,105.990928 C273.764341,100.947655 266.107503,98.056131 266.530798,97.3163574 C267.165741,96.2066971 257.730163,96.3658635 257.730163,109.142724 C257.730163,121.919584 258.675822,148.97938 261.133035,152.228777 C262.771177,154.395042 265.327152,155.470197 268.800959,155.454241 C284.315423,157.333054 295.400609,158.289837 302.056519,158.324588 C328.955016,158.465027 346.444355,155.510191 352.530977,154.350798 C365.049648,151.966214 390.090096,148.590705 396.276749,143.668326 C400.401185,140.38674 402.107875,137.514737 401.396819,135.052317 L387.953447,90.3370594 C384.42149,90.3441273 376.257484,92.1483159 363.46143,95.7496252 Z" id="Path-98" fill="#EE6543"></path>
                    <path d="M266.302727,89.6914669 C264.412858,97.0416498 271.786235,99.0778587 268.182547,106.300582 C265.95896,110.757225 264.425123,120.462237 266.744542,133.729587 C267.47413,137.902923 271.963141,150.659615 278.181502,147.802617 C284.399864,144.945619 277.880743,136.348171 281.716546,125.907329 C285.552349,115.466488 290.270503,116.90983 291.876449,110.525734 C294.805258,98.8828772 282.769741,97.2921848 287.691936,84.048637 C292.614132,70.8050892 268.192596,82.3412839 266.302727,89.6914669 Z" id="Path-118" fill="#0E2440" transform="translate(278.965918, 113.103783) rotate(-3.000000) translate(-278.965918, -113.103783) "></path>
                </g>
                <g id="Group-12" transform="translate(423.276569, 400.082459) rotate(-5.000000) translate(-423.276569, -400.082459) translate(357.698509, 275.727136)">
                    <path d="M97.3734831,19.8650675 C90.2500134,13.1109445 84.0641551,9.13793103 78.8159081,7.94602699 C73.5676612,6.75412294 68.2727863,7.25085459 62.9312835,9.43622193 L56.6981482,15.9023721 L49.0137892,17.2939407 C45.4278179,21.6106293 43.3978285,25.1743789 42.9238211,27.9851895 C42.4498137,30.7960001 43.3794546,33.7571926 45.7127439,36.868767 C50.2066044,45.757991 52.4121192,52.2147261 52.3292883,56.2389723 C52.2464573,60.2632185 54.2871261,65.3549754 58.4512948,71.5142429 L85.9471497,66.053551 L98.562965,59.2508647 L105.070665,35.2992488 L106.514667,21.9293828 L97.3734831,19.8650675 Z" id="Path-90" fill="#EDDECF"></path>
                    <path d="M64.5844531,9.13793103 L57.7744517,12.7192796 L49.6607838,14.0397245 L45.3084778,21.0180568 C46.8677751,21.5996782 49.4322768,21.5996782 53.001983,21.0180568 C58.3565423,20.1456247 63.6577372,17.4414344 64.5844531,14.0397245 C65.2022636,11.7719178 65.2022636,10.1379867 64.5844531,9.13793103 Z" id="Path-90" fill="#0E2440"></path>
                    <path d="M54.7582762,51.6491754 C51.8537319,57.0225085 49.8298871,61.4590402 48.6867415,64.9587706 C46.9720232,70.2083663 48.6867415,70.2083663 46.1033634,78.146118 C43.5199853,86.0838698 39.4242262,86.9463896 38.433072,96.5442279 C37.7723025,102.942787 38.518117,109.728988 40.6705156,116.902832 L38.433072,131.308096 C36.2137073,133.239638 33.6702141,136.682916 30.8025923,141.637931 C26.5011597,149.070453 22.8529603,153.556972 22.8529603,160.311094 C22.8529603,164.813843 24.2767583,173.234191 27.1243544,185.572139 C33.4956444,198.240998 40.3373688,206.766379 47.6495275,211.148283 C54.9616862,215.530187 65.5087145,218.515742 79.2906125,220.104948 C95.5852493,220.237381 106.071358,218.859141 110.748939,215.970226 C117.76531,211.636854 130.126045,197.515714 130.356173,184.637615 C130.586301,171.759515 125.228434,145.092039 121.932553,136.114236 C118.636672,127.136432 107.295471,103.76167 106.948991,99.6990414 C106.602512,95.636413 109.940143,83.5891753 107.295471,78.146118 C105.532355,74.5174131 103.331636,66.2636636 100.693313,53.3848694 L55.5670714,51.6491754" id="Path-92" fill="#EDDECF"></path>
                    <path d="M69.2761679,0 C69.8105807,9.4133813 69.8105807,15.5715522 69.2761679,18.4745127 C68.741755,21.3774733 66.9791287,25.3504868 63.9882889,30.3935532 C66.8391517,27.8001961 69.157568,26.2772076 70.9435377,25.8245877 C72.7295074,25.3719678 75.0479236,25.3719678 77.8987865,25.8245877 C77.1246075,18.0784442 76.2246192,13.0005041 75.1988214,10.5907671 C74.1730236,8.18103021 72.1988057,4.6507745 69.2761679,0 Z" id="Path-88" fill="#0E2440"></path>
                    <path d="M94.7901049,18.8718141 L101.963061,17.7763621 C110.652743,13.6580926 115.301841,11.7114825 115.910356,11.9365319 C116.823128,12.274106 117.802408,22.4478221 114.997584,27.2203521 C113.127701,30.4020387 109.372695,34.3070988 103.732568,38.9355322 C104.008822,33.8197163 103.418986,30.1648609 101.963061,27.970966 C100.507137,25.7770711 98.116151,22.7440204 94.7901049,18.8718141 Z" id="Path-89" fill="#0E2440"></path>
                    <path d="M107.309553,217.125187 C117.805946,230.703922 113.838118,243.515315 91.806179,246.722586 C63.6180384,250.826038 30.8379148,245.983629 9.13963161,226.460217 C-17.9192152,202.113544 35.9880045,197.007003 29.8066566,181.565165 C23.7609908,166.462278 -2.65329871,181.448998 0.794885576,167.661169 C5.16150417,150.200911 39.8335087,158.022204 45.7059206,171.236882 C56.0026616,194.407618 15.4639339,195.524771 27.8209952,215.734633 C29.4936811,218.470295 31.1013163,221.526358 33.7841895,223.283358 C38.9937856,226.695098 44.8639588,229.200246 50.8742294,230.832084 C56.8994089,232.46797 65.6296261,233.209786 71.9386971,230.434783 C73.4188859,229.783731 75.1389504,229.07295 75.913125,227.653673 C80.5840024,219.090658 71.9060018,219.310345 81.0783288,219.310345 C83.6306679,219.310345 89.6550494,219.806861 95.1875477,219.310345 C97.8169148,219.074371 101.857583,218.345985 107.309553,217.125187 Z" id="Path-123" fill="#0E2440" fill-rule="nonzero"></path>
                </g>
                <path d="M290.191115,133.283471 C312.902427,136.344393 267.439648,157.295382 275.030797,131.506747 C279.986495,114.671264 310.497227,123.583036 305.036952,140.942266 C304.152285,143.754786 302.537153,146.5097 300.266862,148.391666 C296.925573,151.161439 292.087239,151.686223 288.741409,154.450512 C287.097182,155.808954 286.250067,158.099212 285.960086,160.211769 C285.752214,161.726152 287.709753,163.095848 287.350748,164.581696 C287.107295,165.589296 285.478124,166.469466 284.56826,165.972251 C282.465855,164.823345 280.727616,162.75665 279.898695,160.509357 C275.164906,147.675536 285.9847,148.854542 294.307549,145.312969 C298.236157,143.641251 301.315285,136.783841 297.882593,133.095564 C296.611895,131.730254 288.886502,129.641156 285.960086,131.506747 C283.631833,132.991008 285.861292,138.473267 285.861113,138.062219 L287.9473,137.068966 C287.946993,136.362535 287.499935,136.048004 286.606125,136.125375 C286.606125,136.125375 286.999941,135.327686 287.350748,134.685157 C287.735235,133.980941 288.091902,133.420735 288.394617,133.283471 C289.043213,132.989371 289.904348,133.244822 290.191115,133.283471 Z" id="Path-47" fill="#FFFFFF" fill-rule="nonzero"></path>
            </g>
        </g>
    </g>
</svg>