<?xml version="1.0" encoding="UTF-8"?>
<svg width="1576px" height="599px" viewBox="0 0 1576 599" version="1.1" xmlns="http://www.w3.org/2000/svg" xmlns:xlink="http://www.w3.org/1999/xlink">
    <!-- Generator: Sketch 51.1 (57501) - http://www.bohemiancoding.com/sketch -->
    <title>contact-me</title>
    <desc>Created with Sketch.</desc>
    <defs></defs>
    <g id="new" stroke="none" stroke-width="1" fill="none" fill-rule="evenodd">
        <g id="sleeping" transform="translate(0.000000, -37.000000)">
            <g id="Group-8" transform="translate(170.000000, 82.000000)">
                <g id="Group-3">
                    <g id="Group-2" transform="translate(0.000000, 62.364066)">
                        <path d="M122.182191,379.797362 L151.736722,94.0880498 L159,18.6359336 C165.28968,6.40519952 174.258803,0.289832498 185.907369,0.289832498 C197.555935,0.289832498 488.042521,0.289832498 1057.36713,0.289832498 C1073.45324,4.75493784 1081.33673,10.8703049 1081.01759,18.6359336 C1080.69845,26.4015623 1080.69845,51.5522677 1081.01759,94.0880498 L1108.21569,366.914374 L1112.00098,378.135934 L122.182191,379.797362 Z" id="Path-52" fill="#DFE2EC"></path>
                        <path d="M704.781452,174.331611 C668.036799,177.149077 646.483533,181.067086 640.121653,186.085638 C633.759773,191.10419 628.19954,197.655131 623.440952,205.738462 L623.440952,273.183575 L623.440952,380.83037 C851.815604,380.83037 991.835937,380.83037 1043.50195,380.83037 C1095.16797,380.83037 1139.66764,379.848891 1177.00098,377.885934 L1075.48965,269.8848 C1050.43156,218.116478 1031.4523,190.183424 1018.55187,186.085638 C1005.65145,181.987852 901.061306,178.069843 704.781452,174.331611 Z" id="Path-51" fill="#DFE2EC"></path>
                        <path d="M249.928135,186.085638 C217.744507,183.505973 198.471754,184.725416 192.109874,189.743968 C185.747994,194.76252 177.438038,201.311559 167.180005,209.391085 L167.180005,273.183575 L167.180005,380.83037 L619.228705,380.83037 L619.228705,269.8848 C622.653748,249.875274 617.916057,237.821619 605.015631,233.723832 C599.678688,232.028566 578.565063,200.020675 536.967832,192.951428 C497.666938,186.272432 401.987039,183.983835 249.928135,186.085638 Z" id="Path-51" fill="#DFE2EC" transform="translate(393.743279, 282.801139) scale(-1, 1) translate(-393.743279, -282.801139) "></path>
                        <path d="M1105.32343,379.808777 L1149.34461,442.820521 C1152.40768,446.530796 1152.40768,448.385934 1149.34461,448.385934 C1144.75,448.385934 1147.81233,448.385934 1138.25098,448.385934 C1131.87674,448.385934 1126.36234,447.606226 1121.70779,446.046812 L1067.00098,379.808777 L1105.32343,379.808777 Z" id="Path-53" fill="#CBCED9"></path>
                        <path d="M129.979772,379.808777 L167.151401,433.016104 L174.122029,442.885934 C174.122029,444.993186 173.191181,446.424558 171.329485,447.18005 C167.72973,448.640862 164.286572,448.385934 161.872029,448.385934 C158.50917,448.385934 153.33987,447.606226 146.364129,446.046812 L91.25,379.808777 L129.979772,379.808777 Z" id="Path-53" fill="#CBCED9" transform="translate(132.686015, 414.105887) scale(-1, 1) translate(-132.686015, -414.105887) "></path>
                        <path d="M229.216402,151.135934 C229.832479,150.021263 228.832642,148.43793 226.21689,146.385934 C223.601138,144.333937 190.500229,125.333725 126.914162,89.3852976 C108.651065,80.6798795 93.2944104,80.6798795 80.8441983,89.3852976 C69.5844346,97.2583323 43.4664015,120.385934 13.2164015,173.635934 C11.0694066,177.415354 7.4863988,182.582021 2.46737811,189.135934 C0.148076024,190.433829 1.35975441,192.466636 6.10241326,195.234355 C9.00933252,196.930774 18.3163692,204.393903 32.9664015,217.635934 C38.4335889,222.577674 48.9240503,231.869492 63.1166144,246.231296 C66.1831392,249.334388 68.8833937,250.885934 71.2173781,250.885934 L221.370537,153.486641 L229.216402,151.135934 Z" id="Path-55" fill="#CBCED9" transform="translate(115.358689, 166.871084) scale(-1, 1) translate(-115.358689, -166.871084) "></path>
                        <path d="M1236,152.135934 C1234.04128,148.864978 1228.87461,144.031645 1220.5,137.635934 L1135.50484,89.3852976 C1117.24174,80.6798795 1101.88509,80.6798795 1089.43488,89.3852976 C1076.98467,98.0907158 1054.3885,135.216204 1021.64638,200.761763 C1052.93281,237.070899 1070.39669,257.710545 1074.03802,262.6807 C1077.67934,267.650856 1081.83333,267.650856 1086.5,262.6807 L1089.43488,256.135934 L1096.00195,249.135934 L1223.41164,157.27475 L1239,160.635934 C1238.95872,158.240222 1237.95872,155.406889 1236,152.135934 Z" id="Path-55" fill="#CBCED9"></path>
                        <path d="M1238.1881,157.635934 C1230.32735,148.591162 1224.36899,143.693692 1220.31302,142.943523 C1181.282,135.724572 1156.85747,137.057613 1147.03943,146.942646 C1135.69101,158.368507 1113.0112,198.599603 1079,267.635934 L1079,378.290655 L1156.68483,378.290655 C1197.72646,381.140462 1220.40146,369.252316 1224.70983,342.626216 C1229.01821,316.000116 1232.11493,286.503356 1234,254.135934 L1238.1881,165.495154 L1238.1881,157.635934 Z" id="Path-54" fill="#DFE2EC"></path>
                        <path d="M156.088899,139.385934 C149.671907,137.885934 142.213411,136.385934 133.713411,134.885934 C110.454023,130.781336 93.4641207,141.151867 86.5672564,146.942646 C75.8031536,155.980454 51.3700397,192.263176 13.2679148,255.790812 L0.463410694,380.385934 L96.2134107,380.385934 C137.046744,380.385934 159.721494,367.799361 164.23766,342.626216 C168.753826,317.453071 170.908013,288.507936 170.70022,255.790812 L175.750977,171.010934 C175.750977,162.9276 175.750977,156.5526 175.750977,151.885934 C175.750977,147.219267 169.196951,143.0526 156.088899,139.385934 Z" id="Path-54" fill="#DFE2EC" transform="translate(88.107194, 257.167599) scale(-1, 1) translate(-88.107194, -257.167599) "></path>
                        <path d="M704.781452,174.331611 C668.036799,177.149077 646.483533,181.067086 640.121653,186.085638 C633.759773,191.10419 628.19954,197.655131 623.440952,205.738462 L623.440952,269.965031 C625.146984,271.975703 629.338498,272.981039 636.015494,272.981039 C739.058928,272.981039 815.115508,270.329086 865.003906,269.965031 C916.906097,269.586281 983.403163,269.586281 1064.4951,269.965031 L1069.36804,269.965031 C1073.45601,269.965031 1073.45601,267.42286 1069.36804,262.338516 C1045.26102,232.355851 1029.22848,213.499643 1022,205.738462 C1017.40018,200.799662 1022.18657,187.240191 1018.55187,186.085638 C1005.65145,181.987852 901.061306,178.069843 704.781452,174.331611 Z" id="Path-51" fill="#CBCED9"></path>
                        <path d="M245.249106,186.085638 C213.065479,183.505973 193.792725,184.725416 187.430845,189.743968 C181.068965,194.76252 172.759009,201.311559 162.500977,209.391085 L162.500977,269.8848 C165.705346,272.024097 169.808644,273.093745 174.810871,273.093745 C179.756402,273.093745 323.030306,271.729149 604.806203,269.957129 C612.473754,269.908909 617.640538,265.385178 620.306554,256.385934 C618.473871,252.5526 610.974197,244.635934 597.80753,232.635934 C596.184258,231.156496 578.55753,213.135934 554.306554,196.385934 C548.59836,192.44332 542.55753,192.951428 532.288803,192.951428 C479.914298,192.951428 384.234399,190.662831 245.249106,186.085638 Z" id="Path-51" fill="#CBCED9" transform="translate(391.403765, 228.932826) scale(-1, 1) translate(-391.403765, -228.932826) "></path>
                        <path d="M944.875,5.01093356 C956.018817,9.64058663 964.227151,13.2655866 969.5,15.8859336 C974.772849,18.5062805 982.341458,22.7216452 992.205825,28.5320277 C999.834485,27.1846316 1013.22421,26.5109336 1032.375,26.5109336 C1050.93112,26.5109336 1076.38841,28.5320277 1112.87549,28.5320277 C1114.62549,28.5320277 1115.20866,30.0249963 1114.625,33.0109336 C1108.55651,51.8194021 1103.84817,64.8194021 1100.5,72.0109336 C1089.41357,95.8234269 1082.99091,113.318949 1076.25,123.510934 C1070.72978,131.857278 1064.03946,134.997175 1062.442,135.291349 C1058.01015,136.107482 1054.59224,136.107482 1052.18825,135.291349 C1056.84579,137.244376 1059.5747,138.817571 1060.375,140.010934 C1061.39924,141.538223 1059.89496,143.978151 1059.6011,145.337489 C1058.96282,148.290026 1054.25173,159.446697 1045.46781,178.807501 C1046.73927,196.193123 1047.375,207.344267 1047.375,212.260934 C1047.375,217.1776 1045.375,218.635934 1041.375,216.635934 C1033.93178,213.360997 1028.93178,210.985997 1026.375,209.510934 C1013.64091,202.164343 1009.64598,197.158324 1007.54586,195.592445 C1003.44692,192.536227 945.516105,190.691367 942.505658,189.1761 C940.498693,188.165921 923.80042,184.709722 892.410841,178.807501 L867.761643,165.16153 C898.883374,89.3696028 915.272956,50.3293408 916.930388,48.0407442 C918.58782,45.7521476 923.611024,39.2492421 932,28.5320277 C934.005932,20.5114838 935.922761,14.1711191 937.750488,9.51093356 C939.578215,4.85074798 941.953052,3.35074798 944.875,5.01093356 Z" id="Path-49" fill="#233A57"></path>
                        <path d="M743.432864,9.38143944 C761.537916,10.9199099 774.893791,12.2547413 783.500488,13.3859336 C792.107185,14.5171258 804.570209,16.5757144 820.889558,19.5616993 L868.489678,14.4715693 C904.739476,11.0781494 923.686442,9.38143944 925.330577,9.38143944 C926.974711,9.38143944 927.739519,11.0781494 927.625,14.4715693 L921.25,38.5109336 L912.291478,58.5063652 L906.182249,80.1082059 L912.291478,151.584046 L914.57104,196.639721 L898.820686,189.929453 C851.044849,185.583402 825.067807,183.492656 820.889558,183.657214 C816.711309,183.821773 782.708306,183.904052 718.880548,183.904052 L701.424796,187.936205 C716.060193,144.467492 725.335261,117.659068 729.25,107.510934 C733.041889,97.6812615 736.716318,92.8602427 737.25,92.6359336 C738.610139,92.06426 742.198401,92.3961061 748.014785,93.6314719 L738.875,90.1359336 C736.791667,89.1209083 735.370793,85.2722919 734.61238,78.5900845 C733.474761,68.5667733 733.625488,64.1752638 733.625488,52.6359336 C733.625488,44.9430467 733.954452,32.9452203 734.61238,16.6424545 C734.61238,15.2091324 734.61238,13.3913817 734.61238,11.1892025 C734.61238,8.98702319 737.552541,8.38443552 743.432864,9.38143944 Z" id="Path-50" fill="#0E2440"></path>
                    </g>
                    <g id="Group-7" transform="translate(323.227500, 184.963415) scale(-1, 1) translate(-323.227500, -184.963415) translate(226.727500, 84.963415)">
                        <polygon id="Path-79" fill="#0E2440" points="36.1127591 114.894496 42.2385365 156.482056 39.1756478 184.282682 32.9479055 184.282682 28.075 190.526107 32.9479055 196.469512 39.1756478 196.469512 45.1712932 194.280999 51.2677769 176.910114 60.70375 135.843519 44.389375 110.95122"></polygon>
                        <path d="M28.386207,5.31537158 C12.2804023,1.79618077 3.43583333,0.0365853659 1.8525,0.0365853659 C0.269166667,0.0365853659 -0.116530998,1.20325203 0.695407005,3.53658537 L10.2021255,10.8012407 C8.15048052,11.973852 6.10427144,14.9952237 4.06349821,19.8653557 C2.02272498,24.7354877 1.70239224,30.3758976 3.1025,36.7865854 C4.85906773,38.4618038 5.17940047,40.2187589 4.06349821,42.0574506 C2.94759595,43.8961423 1.82489889,45.6808539 0.695407005,47.4115854 C1.7906301,49.0648989 2.59606808,50.142953 3.11172096,50.6457477 C7.19707565,54.629231 10.3908698,56.7123059 12.6931035,56.8949723 C15.4312186,57.1122229 19.1266256,57.1122229 23.7793245,56.8949723 C20.9503531,67.73272 19.5358674,74.6489193 19.5358674,77.6435703 C19.5358674,82.1355468 23.0786823,98.4188889 28.386207,103.860611 C31.9245568,107.488425 38.2464917,117.96375 47.3520117,135.286585 C49.8935759,143.16831 51.164358,147.593242 51.164358,148.561382 C51.164358,150.013593 39.2889681,177.246599 54.7997765,182.195732 C46.5885375,183.719971 42.0092225,184.988235 41.0618316,186.000522 C40.1144407,187.01281 39.0851237,189.386302 37.9738808,193.120999 L41.0618316,199.579268 L115.007246,199.579268 L121.982218,199.579268 L129.177341,197.63563 C150.593035,197.383914 162.885044,196.888613 166.053368,196.149729 C170.805853,195.041402 188.857145,194.459356 191.870547,188.327544 C194.883949,182.195732 190.227012,172.786585 184.602012,171.411585 C182.229623,170.831668 177.447404,169.592869 172.977012,169.536585 C167.006108,169.46141 160.227012,169.536585 156.9775,171.411585 C153.727988,173.286585 148.602012,174.911585 149.227472,178.389779 C149.644446,180.708575 150.535537,181.977226 151.900745,182.195732 C142.854715,182.773518 138.27773,181.009566 138.169789,176.903878 C138.007879,170.745345 139.613007,176.903878 139.613007,150.089108 C139.613007,123.274337 136.372464,105.968639 129.177341,97.7375119 C121.982218,89.5063847 110.544016,70.0258566 94.88625,66.1920218 C84.4477396,63.6361319 75.5557915,58.4294744 68.2104056,50.5720492 C67.6997326,32.2742877 65.0910845,20.7640721 60.3844613,16.0414027 C53.3245266,8.95739847 46.0798973,5.31537158 39.4811642,5.31537158 C35.0820088,5.31537158 31.3836898,5.31537158 28.386207,5.31537158 Z" id="Path-77" fill="#0E2440"></path>
                        <ellipse id="Oval-3" fill="#FFFFFF" cx="13.314375" cy="35.5396341" rx="2.330625" ry="2.33231707"></ellipse>
                        <path d="M21.7897559,13.2865854 C17.998252,13.2865854 15.2066667,12.3490854 13.415,10.4740854 L4.41475586,4.53658537 C3.28975586,3.03658537 4.16808601,2.53816217 7.04974631,3.04131578 C14.9995929,4.42940235 20.5472879,5.22877593 22.8426589,7.71467527 C25.8522559,10.9740854 27.4770117,13.2865854 21.7897559,13.2865854 Z" id="Path-78" fill="#233A57"></path>
                    </g>
                    <g id="Group" transform="translate(216.000000, 135.000000)">
                        <path d="M766.601454,123.37149 C770.450485,122.290497 773.416667,121.415916 775.5,120.747747 C778.625,119.745495 780.286805,118.984674 782,118.75 C785.649805,118.25005 789.113757,118.612956 792.391857,119.838719 C793.213952,122.279573 793.958333,124 794.625,125 C795.291667,126 796.083333,126 797,125 L799.525464,119.838719 C798.648894,117.557276 797.807073,115.986036 797,115.125 C796.192927,114.263964 794.65688,113.298343 792.391857,112.228137 L787.875,115.125 C786.823598,116.879101 785.907094,117.337435 785.125488,116.5 C783.95308,115.243848 783.795928,114.424992 784.375,111.375 C784.761048,109.341672 786.431276,107.419734 789.385684,105.609184 C794.211222,104.22445 797.999328,103.979722 800.75,104.875 C803.500672,105.770278 806.755466,108.853611 810.514381,114.125 C811.838127,120.289327 811.838127,124.87266 810.514381,127.875 C808.528763,132.37851 805.625488,135.875 799.525464,136.72354 C795.458781,137.289233 785.378839,137.289233 769.285639,136.72354 L766.601454,123.37149 Z" id="Path-39" fill="#F2E2DF"></path>
                        <path d="M752.334961,79.9960938 C754.64545,85.1403186 756.049515,89.1707357 756.547157,92.0873451 C757.044799,95.0039545 757.044799,99.2025686 756.547157,104.683187 L742.902549,106.456707 L721.097106,92.0873451 L721.097106,82.5077706 L752.334961,79.9960938 Z" id="Path" fill="#D55A4B"></path>
                        <polygon id="Path-44" fill="#F2E2DF" points="137.37801 129.288454 97.3146938 146.244615 97.3146938 183.444298 154.27242 162.484519 144.632719 129.288454"></polygon>
                        <path d="M518.575049,146.909507 C504.859968,150.436662 489.222167,154.811249 471.661646,160.033267 C445.320865,167.866295 403.413058,176.515239 397.5,178 C377,183.147522 373.019719,184.072846 364.781495,183.147522 C352.302492,181.74587 299.419485,172.551533 206.132473,155.564511 L210.386707,131.08623 L451.023055,112.09259 L523.256701,112.09259 L518.575049,146.909507 Z" id="Path-42" fill="#0E2440"></path>
                        <path d="M511.536898,56.458576 C474.839737,43.0922587 446.386994,36.996944 426.17867,38.1726321 C405.970346,39.3483201 376.419613,51.6454842 337.526473,75.0641244 L284.663411,102.116363 C283.022516,101.042396 281.718045,100.503608 280.75,100.5 C279.655929,100.495922 278.073906,102.088319 277.000916,102.085946 C275.650931,102.08296 274.816616,100.500288 273.5,100.5 C272.319208,100.499741 270.652849,102.081602 269.498896,102.083514 C232.585706,102.144661 209.40436,103.31608 199.954858,105.59777 C191.378282,107.668682 176.00098,112.544102 155.612066,120.39163 C154.668713,120.754718 153.654833,119.359457 152.125,120.39163 C150.595167,121.423803 151.844192,123.283258 150.625,123.756387 C149.867973,124.050164 149.125,121.993613 146.625,122.875 C144.125,123.756387 145.75,125.375 144.125,126.625 C142.5,127.875 142.707327,125.818872 140.500488,126.625 C139.029262,127.162419 138.048297,127.96208 137.557594,129.023983 L142.75,166.69645 C143.732436,168.286516 144.732436,169.081549 145.75,169.081549 C147.276346,169.081549 147.245095,166.69645 148.875,166.69645 C150.504905,166.69645 150.350931,169.081549 152.229971,169.081549 C154.109011,169.081549 154.440192,167.16274 156.25,166.69645 C158.059808,166.23016 159.66375,167.360471 161.487236,166.69645 C163.310722,166.032429 162.625,165.380886 162.625,164.375 C162.625,163.70441 162.245745,162.698524 161.487236,161.357343 C162.574442,162.070481 163.328697,162.6597 163.75,163.125 C164.171303,163.5903 164.629636,164.3403 165.125,165.375 L218.425016,150.479375 L270.461735,145.78233 L275.585053,132.24765 L275.585053,145.78233 L351.467951,140.536408 C356.155984,140.536408 359.838727,140.281813 362.51618,139.772624 C365.193633,139.263434 370.850895,137.761197 379.487966,135.265911 L420.052345,124.494387 L523,114.5 L527.550827,81.3163877 L511.536898,56.458576 Z" id="Path-41" fill="#233A57"></path>
                        <polygon id="Path-36" fill="#F2E2DF" points="771.673481 56.2545427 748.03299 85.1901656 740.667153 93.8109266 718.628055 102.782682 703.048668 88.2577982 694.138427 48.9393091 728.911732 27.4344912 767.161371 44.1395342"></polygon>
                        <path d="M687.457883,26.7168078 L637.229141,23.5678473 C634.592423,23.1803776 632.516042,23.1803776 631,23.5678473 C629.951951,23.8357074 628.36421,25.6605498 627.30803,25.9568507 C626.290237,26.2423823 624.150344,26.4048653 623.125,26.7168078 C619.954979,27.6812304 617.867196,28.9081306 614.625,30.125 C606.884601,33.0301467 595.717934,37.8634801 581.125,44.625 L534.625,54.625 C531.887887,53.9466855 529.679554,53.5136402 528,53.325864 C526.320446,53.1380879 524.65543,53.1380879 523.004951,53.325864 L517.90283,52.7554407 C517.138281,51.7792385 516.045671,51.211721 514.625,51.0528882 C512.493993,50.8146391 511.893807,51.75 509.946903,51.75 C508,51.75 510.375977,49.125 507.000488,49.125 C503.625,49.125 504.823022,51.0528882 502.875,51.0528882 C500.926978,51.0528882 500.752864,49.3489227 498.75,49.125 C497.414757,48.9757182 495.956424,49.3090515 494.375,50.125 L503.875,65.5 C506.463147,75.1057861 508.129814,82.1891194 508.875,86.75 C509.620186,91.3108806 509.977487,96.6151573 509.946903,102.66283 C513.377944,102.054277 516.02992,101.75 517.90283,101.75 C519.775741,101.75 521.476447,102.054277 523.004951,102.66283 C519.841564,102.929636 517.048248,103.417026 514.625,104.125 C512.201752,104.832974 510.642387,105.832974 509.946903,107.125 C513.898968,131.708333 515.458333,145.375 514.625,148.125 C514.059518,149.99109 517.250488,151 521.875488,148.125 C523.350002,147.20841 522.412344,146.5 525.5,146.5 C528.587656,146.5 530.505983,147.093447 534.625,146.5 C538.744017,145.906553 540.375,143.801345 542.375,144.068736 C545.010863,144.42114 547.25,145.426345 556.25,144.068736 C558.190166,143.776071 561.735368,142.120316 565.354527,142.375 C565.605664,142.392673 570.812164,143.414413 571.125,141.625 C571.291554,140.672317 571.046845,138.787981 570.25,136.625 C569.360901,134.211604 567.908833,131.545671 568.125,131.375 C568.633827,130.973263 572.308412,134.67455 572.625,137.625 C573.006084,141.176526 573.964417,142.50986 575.5,141.625 C580.563835,139.877706 585.438835,138.544373 590.125,137.625 C594.811165,136.705627 601.311185,135.807308 609.625061,134.930045 L642.32254,134.930045 L700.700718,114.452527 L687.457883,26.7168078 Z" id="Path-40" fill="#FFFFFF"></path>
                        <path d="M67.005057,154.066365 C49.3536425,150.735249 39.0671154,150.735249 36.1454757,154.066365 C31.7630162,159.063039 33.5425,167.5 28.0004883,175.125 C24.5577988,179.861639 16.2423556,188.796434 3.05415846,201.929386 C2.08885853,202.890643 0.375,203.163599 0.375,207.5 C0.375,211.836401 0.726886892,211.836401 1.05938231,214.980553 C2.68207311,230.325084 4.44804198,240.370417 6.35728892,245.116554 C8.37606163,250.134957 12.5606658,255.579688 18.9111015,261.450744 C19.5018331,261.996883 20.9482954,261.763302 23.2504883,260.75 L33.5425,236.390209 L46.0359288,217.935902 L74.2711634,192.986775 C83.2570545,188.912258 88.6666667,186.583333 90.5,186 C93.25,185.125 92.4454903,186.495946 94.25,186 C96.0545097,185.504054 95.7464375,184.515251 97.6276308,184.006843 C99.5088241,183.498434 99.9817903,184.638613 101.625,184.006843 C103.26821,183.375073 102.602258,182.076609 104.454385,181.382139 C106.306513,180.68767 107.615898,181.770112 108.625,181.382139 C109.297735,181.123491 109.756068,180.412778 110,179.25 C105.347226,167.362926 102.555559,159.612926 101.625,156 C100.949999,153.379285 100.923686,145.804074 100.625,145.125 C99.7086589,143.041667 98.7970867,143.343531 97.8902834,146.030594 C96.3441365,145.19772 95.1307087,144.895856 94.25,145.125 C92.9289369,145.468716 93.735761,147.059116 92.0712008,147.544613 C90.4066407,148.03011 89.6525612,146.510079 88.25,146.875 C87.3149592,147.118281 86.5158705,147.880795 85.8527339,149.162544 L67.005057,154.066365 Z" id="Path-43" fill="#F06D5D"></path>
                        <path d="M663.815967,67.8815837 C657.475998,79.5152985 652.758728,87.2195746 649.664156,90.9944118 C641.256824,101.24989 632.596119,105.580646 630.25,107.25 C625.916667,110.333333 617.725714,116.827206 605.677143,126.731618 C599.008472,131.558027 595.435732,134.692719 594.958924,136.135696 C594.482115,137.578672 594.482115,140.28344 594.958924,144.25 C595.671425,145.531349 596.318002,146.199374 596.898655,146.254073 C621.256711,148.548681 634.663638,152.661388 637.119437,158.592193 C639.66305,164.735068 646.894963,169.136764 658.815176,171.797281 C660.252251,171.797281 660.252251,174.874902 658.815176,181.030142 C657.770859,185.503134 654.21206,196.77552 649.664156,213.375 C648.591196,217.291219 643.25,223.474337 643.25,232.875 C643.25,233.791667 643.708333,234.25 644.625,234.25 C650.552848,235.468477 655.282906,236.80181 658.815176,238.25 C662.070935,239.584824 666.637199,241.894291 672.408783,245.484372 C673.386261,246.09239 674.291667,246.09239 675.125,245.484372 C678.54155,241.706153 681.138502,238.419696 682.915854,235.625 C684.693206,232.830304 686.753836,228.463474 689.097743,222.52451 C688.247792,229.589499 687.42145,234.831329 686.618719,238.25 C685.916053,241.242513 684.518682,244.294315 682.434219,247.414487 C681.728073,248.471496 682.125,249 683.625,249 C693.986378,247.547289 701.944712,246.679422 707.5,246.396399 C713.055288,246.113376 719.180288,246.113376 725.875,246.396399 C727.090243,246.113376 727.788637,245.221901 727.97018,243.721974 C729.50119,231.072616 729.875,221.238842 729.875,214.375 C729.875,207.036911 729.375,197.203578 728.375,184.875 C727.923577,177.011511 727.697865,171.566473 727.697865,168.539884 C727.697865,164 721.335035,155.691497 714.76562,150.853198 C710.38601,147.627666 701.00371,139.587139 686.618719,126.731618 L699.330131,118.731518 L663.815967,67.8815837 Z" id="Path-48" fill="#F06D5D"></path>
                        <path d="M726.25,120 C735.939904,120.596852 746.059026,121.254872 756.375,121.125 C757.499912,121.110838 758.748958,120.456569 759.875,120.439404 C760.910846,120.423615 761.328075,121.155905 762.375,121.125 C763.124686,121.102869 764.74324,120.461983 765.5,120.439404 C766.193776,120.418705 767.485443,121.147237 769.375,122.625 L773.250488,137.953446 C771.53206,137.776119 770.240231,137.776119 769.375,137.953446 C768.521944,138.128278 767.862579,139.118428 766.938279,139.287423 C766.200312,139.42235 764.908381,138.493793 764.125,138.625 C763.228095,138.775221 762.081437,139.854656 761.125,140 C758.691228,140.369846 756.540221,139.635083 753.875,140 C750.204172,140.502603 745.865173,142.093999 741.250977,142.5 C727.18862,143.737341 712.416208,144.476652 696.93374,144.717933 C684.225449,145.430538 675.080869,145.430538 669.5,144.717933 C661.128697,143.649025 649.316061,140.46648 645.5,137.953446 C641.683939,135.440413 642.721107,131.335344 643.25,130 C648.823125,115.929027 657.012731,112.437854 663.25,112 C670.07919,111.520593 677.529203,112.63678 685.600039,115.348561 C699.328262,117.625884 712.878249,119.176364 726.25,120 Z" id="Path-38" fill="#FFFFFF"></path>
                        <path d="M731.312397,95.8669538 L716.607792,78.9207806 L710.445849,80.461731 L714.054682,74.7573611 L704.878017,59.868642 L696.226364,59.868642 L705.717893,55.5175975 L699.552388,18.4613091 L701.04194,11.171758 C701.638426,8.71242026 701.936668,7.21070709 701.936668,6.66661846 C701.936668,5.8504855 694.064341,-0.894025798 681.082231,0.250985905 C668.100121,1.39599761 649.955588,6.51577735 642.25,11.171758 C634.544412,15.8277386 632.749031,24.9675775 634.013533,28.6915071 C634.856535,31.1741268 640.014758,35.5513294 649.488203,41.8231149 L662.412611,41.8231149 L650.712043,45.9280353 L660.704364,57.3296409 L678.947278,72.1241909 C683.959941,82.3581937 688.647292,88.5058246 693.009331,90.5670835 C697.371369,92.6283423 702.336542,98.0839723 707.904849,106.933973 L722.036713,120.25 C727.204827,119.433032 730.650923,118.891366 732.375,118.625 C734.099077,118.358634 736.640744,117.858634 740,117.125 C735.666667,115.625 732.166667,113.791667 729.5,111.625 C726.833333,109.458333 724.345571,106.745841 722.036713,103.487524 C725.928904,106.412508 729.375,108.833333 732.375,110.75 C735.375,112.666667 738.875,114.25 742.875,115.5 C746.791992,114.25 749.750326,112.666667 751.75,110.75 C753.749674,108.833333 755.26918,106.766831 756.308515,104.550494 L731.312397,95.8669538 Z" id="Path-45" fill="#F06D5D"></path>
                        <path d="M672.921316,54.276608 C674.716805,56.6149514 690.143034,74.104262 719.200003,106.74454 C723.166671,116.476164 723.166671,122.243313 719.200003,124.045988 C715.233334,125.848663 707.541667,126.166667 696.125,125 C687.041667,122 677.583333,115.25 667.75,104.75 C657.916667,94.25 646.58733,77.425536 633.761989,54.276608 L630.725897,39.7374563 C630.542664,29.8709275 631.554695,24.6251087 633.761989,24 C635.427289,23.5283847 637.794915,26.7956041 649.844305,35.586878 C652.321966,37.394588 655.985367,39.2819096 660.223439,39.7374563 C662.693371,40.0029471 670.228083,50.7690929 672.921316,54.276608 Z" id="Path-37" fill="#FFFFFF"></path>
                    </g>
                    <g id="Group-4" transform="translate(215.838028, 0.000000)">
                        <path d="M123.493393,24.4002433 C108.010753,9.99813547 98.7380356,2.79708156 95.67524,2.79708156 C92.6124445,2.79708156 85.8608569,3.34579081 75.4204773,4.44320931 C72.676472,5.54062781 69.3657799,5.54062781 65.4884013,4.44320931 C59.6723332,2.79708156 46.2400518,-0.58577369 40.8952187,0.0874521386 C35.5503857,0.760677967 15.2428001,3.21384041 11.0545083,9.75374845 C6.86621647,16.2936565 -2.07334699,31.7067646 0.437125969,44.0241489 C2.94759893,56.3415333 5.32323475,69.7126624 17.4279959,73.0104933 C25.4978366,75.2090472 35.890027,76.9532085 48.604567,78.2429773 L86.4131795,73.0104933 C104.67226,67.0095376 114.378681,63.4505936 115.532442,62.3336613 C116.686203,61.216729 119.339853,48.5722564 123.493393,24.4002433 Z" id="Path-59" fill="#EDDECF"></path>
                        <path d="M144.701812,30.7371436 L128.209399,43.9475824 C128.821978,50.9899394 128.821978,54.8441879 128.209399,55.5103279 C127.59682,56.1764679 124.343694,58.6583075 118.450021,62.9558467 L102.324195,65.5971319 L83.3993416,61.2303034 L73.1381074,46.2742568 C71.1045367,34.334567 70.3977762,27.4719876 71.0178258,25.6865184 C71.6378755,23.9010492 74.3795406,21.5944392 79.2428214,18.7666883 L81.5479972,14.2883014 C82.7822268,9.7441031 83.3993416,6.98269871 83.3993416,6.00408824 C83.3993416,5.02547777 83.3993416,4.05088019 83.3993416,3.0802955 L94.6290698,12.064357 L100.678556,12.064357 C107.73122,13.438906 112.456297,14.8995985 114.853786,16.4464345 C117.251276,17.9932704 121.703147,21.6722893 128.209399,27.4834912 L144.701812,30.7371436 Z" id="Path-58" fill="#EDDECF"></path>
                        <path d="M2.45885425,51.4376926 C8.80497187,56.1591126 13.5545347,59.2238063 16.7075428,60.6317735 C24.9069896,64.2932144 33.0404795,65.093397 35.0489601,65.5230031 C38.2159496,66.2004098 46.2414563,66.5391131 59.1254802,66.5391131 C70.1551873,65.5222611 76.043716,64.3989383 76.7910664,63.1691447 C77.9120919,61.3244543 76.5124749,58.0173667 75.6700409,56.1097954 C74.8276068,54.2022242 76.7033822,51.4376926 78.2472896,50.5584737 C79.791197,49.6792547 85.5317356,48.4060566 87.4896455,51.4376926 C89.4475554,54.4693287 91.3732774,54.3513255 90.9071084,58.0334883 C90.4409394,61.7156511 90.566361,65.8969494 89.0280032,68.2608242 C87.4896455,70.624699 77.4536923,76.585581 73.3269866,76.585581 C69.2002808,76.585581 42.8395324,78.9227453 39.6440547,77.7541632 C37.5137363,76.9751084 28.5649932,75.1959276 12.7978255,72.4166209 C8.25172068,68.0409368 5.64215321,65.1702681 4.96912311,63.8046148 C4.29609301,62.4389615 3.45933672,58.3166541 2.45885425,51.4376926 Z" id="Path-60" fill="#0E2440"></path>
                        <polygon id="Path-56" fill="#0E2440" points="100.274349 11.6100976 91.6971743 8.51535573 83.6586739 3.16215849 91.9665117 18.415159 91.9665117 28.2330993 97.027093 18.415159"></polygon>
                        <path d="M120.809624,25.01155 L143.91421,29.1359999 L145.471804,30.5469325 L136.945055,30.5469325 C132.847498,29.2007412 129.937747,29.2007412 128.215802,30.5469325 C126.493857,31.8931239 124.025131,34.6438272 120.809624,38.7990426 C117.695503,37.0242744 116.138442,35.5716077 116.138442,34.4410424 C116.138442,33.3104771 117.695503,30.167313 120.809624,25.01155 Z" id="Path-57" fill="#0E2440"></path>
                        <ellipse id="Oval-5" fill="#0E2440" transform="translate(95.895316, 46.023050) rotate(28.000000) translate(-95.895316, -46.023050) " cx="95.8953157" cy="46.0230498" rx="23.7689244" ry="14.7931232"></ellipse>
                        <g id="Group-6" transform="translate(84.055667, 40.670755) rotate(24.000000) translate(-84.055667, -40.670755) translate(80.171292, 36.006120)">
                            <ellipse id="Oval-4" fill="#FFFFFF" cx="3.78285269" cy="5.47172538" rx="3.78285269" ry="3.56851655"></ellipse>
                            <ellipse id="Oval-4" fill="#0E2440" cx="3.78285269" cy="3.56851655" rx="3.78285269" ry="3.56851655"></ellipse>
                        </g>
                        <g id="Group-5" transform="translate(107.117108, 53.425299) rotate(24.000000) translate(-107.117108, -53.425299) translate(102.455858, 48.760665)">
                            <ellipse id="Oval-4" fill="#FFFFFF" cx="4.41332814" cy="5.47172538" rx="3.78285269" ry="3.56851655"></ellipse>
                            <ellipse id="Oval-4" fill="#0E2440" cx="4.41332814" cy="3.56851655" rx="3.78285269" ry="3.56851655"></ellipse>
                        </g>
                    </g>
                </g>
                <g id="Group-27" transform="translate(990.000000, 285.000000)">
                    <path d="M4.5592843,3.14427834 L15.9522621,0.232855009 C16.9522163,-0.0776183364 18.2493168,-0.0776183364 19.8435638,0.232855009 C21.4378107,0.543328355 34.421302,3.71458306 58.7940376,9.74661911 C60.6859818,10.3673206 61.713539,11.0108906 61.8767094,11.6773293 C62.121465,12.6769872 61.9522953,12.7882303 61.0637939,13.8864746 C60.4714597,14.6186375 57.9774095,17.0380581 53.5816433,21.1447364 C51.7221374,22.7259188 49.9881613,23.2964074 48.3797149,22.8562023 C46.7712686,22.4159972 31.310415,17.2264135 1.99715418,7.28745117 C0.900337199,7.08220417 0.351928711,6.58407049 0.351928711,5.79305013 C0.351928711,4.60651959 0.910718462,4.0275088 1.99715418,3.73910702 C2.72144465,3.54683916 3.57548803,3.34856294 4.5592843,3.14427834 Z" id="Path-158" fill="#F8F8F8"></path>
                    <path d="M17.0384946,0.00019979118 C17.7001821,-0.0042474125 18.398535,0.0655489786 19.1335533,0.209588965 C19.8685715,0.353628951 32.9350667,3.54579469 58.3330389,9.78608619 C59.3307034,10.1250619 59.8295356,10.2945498 59.8295356,10.2945498 C59.8295356,10.2945498 60.9062138,10.5654586 60.2229549,11.3389015 C59.7674489,11.85453 57.5870211,13.8704189 53.6816714,17.386568 C52.1306045,19.0844116 50.974118,19.9333333 50.2122118,19.9333333 C49.0693526,19.9333333 46.0033952,19.3107248 44.5840791,18.8432125 C43.6378684,18.5315377 29.6146518,13.8832748 2.51442914,4.89842405 C1.48156597,4.51967053 1.27831766,4.22868753 1.90468421,4.02547502 C2.53105077,3.82226252 6.56399586,2.74894227 14.0035195,0.805514258 L17.0384946,0.00019979118 Z" id="Path-159" fill="#0E2440"></path>
                </g>
                <path d="M935.14232,182.315576 C929.25411,186.215022 921.375488,182.315576 923.548237,192.336906 C925.720987,202.358237 925.446812,231.873626 921.375488,234.375 C919.264914,235.671712 917.513269,220.842729 916.297722,215.75 C915.168464,211.018793 913.18855,209.68855 912.125,208.625 C909.375,205.875 904.308897,215.019911 901.000488,211 C897.692079,206.980089 899.852438,182.315576 895.236182,182.315576 C891.336809,182.315576 895.469934,203.262315 891.336809,201.59199 C887.203684,199.921665 880.421324,181.050077 881.039492,176.57825 C881.451604,173.597032 884.884043,169.534064 891.336809,164.389345 C890.089361,159.833341 890.089361,156.475567 891.336809,154.316022 C894.135027,149.471831 902.716267,123.057264 916.297722,117.045549 C929.879178,111.033835 963.879487,101.989957 973.15523,105.986766 C982.430974,109.983574 998.470246,125.000485 1000.52255,129.155713 C1002.57485,133.310942 1011,139.883728 1011,144.472962 C1011,147.532451 1009.6318,154.765607 1006.8954,166.172429 L979.862712,195.564286 C976.019911,207.176241 973.784084,212.849112 973.15523,212.582901 C966.257951,209.663094 959.398707,199.573986 952.577496,182.315576 L961.995325,160.057544 C944.600195,174.560557 935.649193,181.979901 935.14232,182.315576 Z" id="Path-35" fill="#0E2440"></path>
                <path d="M1010.9963,144.211073 C1014.86318,150.741695 1017.13239,159.337977 1017.80392,169.999921 C1018.81121,185.992837 1015.72829,196.920469 1013.32631,205.505174 C1010.92433,214.089879 996.807511,215.671121 1001.1652,221.075038 C1005.52289,226.478956 980.166713,244.260907 975.680159,241.760537 C971.193605,239.260167 993.488304,228.644812 984.322695,226.949077 C978.212288,225.818587 973.10805,222.411172 969.009981,216.726831 C969.638257,227.579823 968.700554,232.652181 966.196871,231.943907 C962.441347,230.881495 951.728518,218.099254 949.508593,209.615632 C948.476328,205.670744 948.924948,197.34952 949.508593,190.451189 C950.180098,182.514412 953.639677,173.86436 954.245374,172.250254 C955.377519,169.233232 946.764352,183.25 945.625,187.5 C944.485648,191.75 944.485648,194.322677 940.694852,196.89927 C936.904056,199.475863 930.723423,200.619552 930.066859,199.004212 C929.410295,197.388871 931.75,195.650563 931.75,190.451189 C931.75,185.251815 931.125,176.75 933.000977,168.625 C934.251628,163.208333 940.604858,153.765566 952.060668,140.296697 L991.314389,135 L1010.9963,144.211073 Z" id="Path-46" fill="#0E2440"></path>
            </g>
        </g>
    </g>
</svg>