<?xml version="1.0" encoding="UTF-8"?>
<svg width="445px" height="423px" viewBox="0 0 445 423" version="1.1" xmlns="http://www.w3.org/2000/svg" xmlns:xlink="http://www.w3.org/1999/xlink">
    <!-- Generator: Sketch 51.1 (57501) - http://www.bohemiancoding.com/sketch -->
    <title>scruffy</title>
    <desc>Created with Sketch.</desc>
    <defs>
        <path d="M242.749522,172.561112 C239.344539,208.60905 234.963065,231.336352 229.605099,240.743016 C224.247134,250.149681 208.821755,264.555092 183.328963,283.959249 L156.584776,332.774055 L154.516632,342.959491 L163.174501,347.520939 L163.174501,354.729998 L146.724868,354.729998 L140.848407,342.959491 L140.848407,332.774055 L151.527703,262.965511 C143.338149,260.000939 135.243141,258.518653 127.242678,258.518653 C119.242215,258.518653 111.243648,260.000939 103.246976,262.965511 C86.5748995,285.728466 76.7592644,298.351953 73.8000712,300.835973 C70.8408779,303.319993 69.3612813,307.814736 69.3612813,314.3202 L69.3612813,322.58862 L83.6392826,342.959491 L90.6891254,342.959491 L97.9220603,347.520939 L97.9220603,354.729998 L81.0728087,354.729998 L44.1120815,314.3202 L44.1120815,277.132958 L31.4357382,217.406886 C34.8119127,192.802295 42.8333333,176.813931 55.5,169.441792 C74.5,158.383585 82.8000484,159.466291 112.998047,161.498047 C133.130046,162.852551 152.977118,168.12531 172.539265,177.316327 L188.466687,174.808483 L188.466687,169.441792 L242.749522,172.561112 Z" id="path-1"></path>
    </defs>
    <g id="new" stroke="none" stroke-width="1" fill="none" fill-rule="evenodd">
        <g id="Group-2" transform="translate(222.500000, 211.500000) scale(-1, 1) translate(-222.500000, -211.500000) translate(86.000000, 34.000000)">
            <path d="M210.857974,263 C208.476971,284.956003 207.286469,297.829354 207.286469,301.620054 C207.286469,305.410754 210.117733,316.726103 215.780261,335.566102 L220.152113,340.229073 L228.131849,340.229073 L234,344.480605 L231.364868,352 L220.152113,352 L203.855736,338.30745 L181,296.611853 L181,273.252861 L210.857974,263 Z" id="Path-25" fill="#0E2440"></path>
            <path d="M81,268.537023 L61.7407657,287.857434 L24.1822139,306.078775 C20.1555841,313.986989 18.1422693,319.16635 18.1422693,321.616858 C18.1422693,324.067365 18.1422693,330.701019 18.1422693,341.517819 L24.1822139,343.937046 L29.0090414,349.775955 L24.1822139,353 L9.21295875,353 L0,343.937046 L9.21295875,287.857434 C15.9745771,273.952845 20.9643288,265.848463 24.1822139,263.544286 C29.0090414,260.088021 30.8118904,254.839206 30.8118904,246.721039 C30.8118904,238.602871 35.7508952,206.480123 40.5,206.480123 C43.6660698,206.480123 46.8083688,205.320082 49.9268968,203 L81,268.537023 Z" id="Path-24" fill="#0E2440"></path>
            <path d="M198.514501,115.051003 C206.752353,106.801681 212.457869,102.50957 215.631051,102.17467 C220.390823,101.672321 237.633448,95.289789 245.90042,102.17467 C251.411735,106.764591 257.791003,109.483895 265.038223,110.332581 L272,127.902952 L250.63979,165.759817 L242.578196,195 L204.145623,195 L161,185.097683 C170.712964,176.922986 176.675731,170.477031 178.888301,165.759817 C181.100872,161.042604 183.003358,150.719789 184.595762,134.791375 L198.514501,115.051003 Z" id="Path-22" fill="#EDDECF"></path>
            <path d="M229.281257,154.1914 C220.746906,146.574201 217.416888,129.43175 219.699921,121.568149 C224.605638,104.671063 235.79133,97.2782272 245.883815,102.81157 C254.245577,107.39602 261.033615,109.600926 266.247928,109.426288 C271.92843,113.436238 273.845787,119.893837 272,128.799083 C270.154213,137.70433 265.144039,146.168435 256.96948,154.1914 C244.200232,159.269533 234.970825,159.269533 229.281257,154.1914 Z" id="Path-22" fill="#0E2440"></path>
            <path d="M200.187619,115.617404 L180,104 C183.708226,124.295577 187.072829,136.869471 190.093809,141.721683 C193.11479,146.573894 198.009197,149 204.777031,149 L208,135.010748 L190.093809,115.617404 L200.187619,115.617404 Z" id="Path-21" fill="#0E2440"></path>
            <circle id="Oval-3" fill="#FFFFFF" cx="244" cy="121" r="5"></circle>
            <g id="Group-+-Group-Mask" transform="translate(5.000000, 0.000000)">
                <path d="M70.7410463,165.5 C68.7916591,162.373711 71.8439758,147.751078 59.25,133.5 C49.75,122.75 31.2410463,113.75 31.2410463,101 C31.2410463,78 53.4910463,80.4944647 70.7410463,73.4889294 C95.7475986,63.3333187 121.53267,46.3715452 106.23714,20.9869763 C93.5954901,0.00680533642 46.9572975,-7.23499762 31.2410463,8.48892942 C25.3960464,14.336784 37.3966615,23.2718292 41.7429994,22.4889294 C62.5,18.75 81.1808101,23.3937694 84.2509766,31.75 C85.5118521,35.1817901 80.8730823,43.0206878 72.4910463,46.7389294 C58.9652397,52.7389294 41.5,55.75 26.75,62.75 C12,69.75 4.08694713,76.2482342 1.5,88.875 C-1.08694713,101.501766 0.25,109.25 6.75,119.25 C13.25,129.25 34.209947,140.86095 41.7429994,150.5 C50.1855109,161.302765 48.6360237,176.63628 49.75,177.75 L70.7410463,165.5 Z" id="Path-26" fill="#0E2440" fill-rule="nonzero"></path>
                <mask id="mask-2" fill="white">
                    <use xlink:href="#path-1"></use>
                </mask>
                <use id="Mask" fill="#EDDECF" xlink:href="#path-1"></use>
            </g>
            <path d="M74.375,322.625 L88.3485739,343.275326 L95.625,343.275326 L102.25,347 L104,349.749586 L104,355 L85.5493384,355 L49,314.5 L49,277.625 L45.125,258.75 C49.272206,249.12586 56.2305394,247.37586 66,253.5 C74.375,258.75 74.375,264.625 84.875,267.625 C89.2227755,268.867222 96.5977755,267.867222 107,264.625 L74.375,308.25 L74.375,322.625 Z" id="Path-29" fill="#233A57"></path>
            <path d="M189,284.25 L161.625,332.375 L159.25,343.125 L168.375,347.375 L168.375,355 L151.875488,355 L146,343.125 L146,327.860159 L156.625,263 C164.458333,263 170.458333,263.791667 174.625,265.375 C180.934085,267.772452 177.625,275.875 184.125,278.125 C188.458333,279.625 192.458333,279.625 196.125,278.125 L189,284.25 Z" id="Path-27" fill="#233A57"></path>
        </g>
    </g>
</svg>