<?xml version="1.0" encoding="UTF-8"?>
<svg width="748px" height="599px" viewBox="0 0 748 599" version="1.1" xmlns="http://www.w3.org/2000/svg" xmlns:xlink="http://www.w3.org/1999/xlink">
    <!-- Generator: Sketch 51.1 (57501) - http://www.bohemiancoding.com/sketch -->
    <title>sitting-w-cat</title>
    <desc>Created with Sketch.</desc>
    <defs>
        <filter x="-2.2%" y="-1.2%" width="109.1%" height="103.2%" filterUnits="objectBoundingBox" id="filter-1">
            <feOffset dx="6" dy="2" in="SourceAlpha" result="shadowOffsetOuter1"></feOffset>
            <feColorMatrix values="0 0 0 0 0   0 0 0 0 0   0 0 0 0 0  0 0 0 0.1 0" type="matrix" in="shadowOffsetOuter1" result="shadowMatrixOuter1"></feColorMatrix>
            <feMerge>
                <feMergeNode in="shadowMatrixOuter1"></feMergeNode>
                <feMergeNode in="SourceGraphic"></feMergeNode>
            </feMerge>
        </filter>
    </defs>
    <g id="new" stroke="none" stroke-width="1" fill="none" fill-rule="evenodd">
        <g id="sitting-w-cat">
            <g id="Group" transform="translate(135.000000, 40.000000)">
                <path d="M151.990783,80.7909605 C222.248306,80.7909605 348.776858,102.090395 373.001536,132.937853 C397.226214,163.785311 339.228675,160.112994 363.459089,173.333333 C377.966398,181.248655 407.686444,206.445753 392.826421,241.638418 C384.541734,261.258859 389.73209,296.207245 411.182796,320.225989 C428.207652,339.28903 477.205403,404.65634 448.6298,439.943503 C420.726583,474.400357 346.480684,463.475394 277.548387,465.649718 C138.022729,470.050759 149.576443,477.116791 115.278034,449.491525 C80.9796248,421.866259 63.9480595,354.829731 58.0061444,330.508475 C48.0760391,289.862887 79.5737504,274.68478 106.478447,258.531073 C118.144556,251.526686 131.979755,242.293371 129.963134,226.214689 C124.765065,184.770084 51.7277706,203.593845 31.5729647,173.333333 C28.1890903,168.25277 24.832226,150.482795 40.3897609,146.892655 C58.3124139,142.756728 84.5732568,146.894768 78.5595478,121.915166 C72.5458388,96.935564 0,110.155903 0,80.7909605 C1.76331291e-15,51.426018 42.7759297,67.4298269 58.0061444,51.4124294 C73.2363591,35.3950318 31.5729647,-0.734463277 91.047619,5.14124294 C107.72834,6.78918893 165.941628,11.7514124 165.941628,26.440678 C165.941628,41.1299435 126.709972,41.1299435 115.278034,51.4124294 C103.846096,61.6949153 103.846096,80.7909605 151.990783,80.7909605 Z" id="Path-28" fill="#DFE2EC" fill-rule="nonzero"></path>
                <g id="Group-4" transform="translate(30.104455, 44.067797)">
                    <g id="Group-8" transform="translate(12.482335, 229.152542)">
                        <path d="M7.52611367,67.3870056 L5.18106069,100.594086 C1.89562328,104.967969 0.252904582,108.097027 0.252904582,109.98126 C0.252904582,112.807608 -0.823313646,128.170103 1.46444611,128.170103 C2.98961928,128.170103 9.37873632,128.170103 20.6317972,128.170103 L26.2938832,123.139553 C20.0514991,127.812428 16.930307,130.517958 16.930307,131.256144 C16.930307,132.363423 14.9402585,144.689266 17.7860279,144.689266 C19.6832075,144.689266 24.5023089,144.203072 32.2433322,143.230685 L40.6962622,143.230685 L47.9686955,138.590471 L66.4936589,128.170103 C82.2346772,125.609289 92.1154007,123.932439 96.1358293,123.139553 C100.156258,122.346667 102.545643,121.406144 103.303984,120.317984 L148.410423,114.50517 C166.064542,100.489731 175.082645,92.6583242 175.464735,91.0109486 C176.037869,88.5398851 165.425338,50.7179569 154.35032,46.5477386 C143.275302,42.3775203 117.941985,26.3331332 104.322889,30.9343138 C90.703793,35.5354945 93.8193086,34.4810236 87.7434716,38.4749607 C81.6676346,42.4688978 81.8694316,46.8220339 78.1981567,48.1073446 C75.75064,48.9642185 68.2490104,49.9661276 55.6932677,51.1130721 L7.52611367,67.3870056 Z" id="Path-81" fill="#0E2440"></path>
                        <path d="M25.1482335,20.6567797 L12.2911043,1.47303964 L11.6730421,0.550847458 C10.1793682,-0.184057546 9.22537416,-0.184057546 8.81105991,0.550847458 C5.70164087,6.06629286 4.76124669,9.36807556 4.31374808,11.9350282 C3.50833962,16.5550324 -0.15768526,30.0338871 4.9562212,33.8771186 L2.4781106,44.3432203 C0.986499756,58.1571557 4.05147693,67.9499994 11.6730421,73.7217514 C23.1053899,82.3793794 30.9072716,82.0700863 35.703149,82.1680791 C40.4990265,82.2660719 63.3845589,77.0275796 66.9122957,70.7042527 C69.2641202,66.4887014 71.3128122,59.354233 73.0583717,49.3008475 L71.039529,41.4971751 C75.557948,32.0447657 78.2943186,25.4958015 79.2486409,21.8502825 C80.2029633,18.2047635 80.2029633,14.3007697 79.2486409,10.1383012 C78.4871302,8.82670303 77.191957,8.82670303 75.3631215,10.1383012 C73.534286,11.4498993 66.5493089,15.8364733 54.4081901,23.2980232 C48.4859648,21.8355163 43.8724308,20.9551018 40.5675883,20.6567797 C37.2627458,20.3584575 32.1229609,20.3584575 25.1482335,20.6567797 Z" id="Path-80" fill="#0E2440"></path>
                        <ellipse id="Oval-3" fill="#FFFFFF" cx="54.3348694" cy="60.960452" rx="3.67127496" ry="3.67231638"></ellipse>
                        <ellipse id="Oval-3" fill="#FFFFFF" cx="19.8248848" cy="58.7570621" rx="3.67127496" ry="3.67231638"></ellipse>
                    </g>
                    <g id="Group-2">
                        <polygon id="body" fill="#FFFFFF" points="160.070457 151.299435 287.093702 138.813559 315.188617 272.910059 342.897081 354.745763 315.188617 452.060118 141.286119 452.060118 104.863961 364.830637 134.832706 272.910059"></polygon>
                        <g id="cat" filter="url(#filter-1)" transform="translate(158.676368, 215.911914)">
                            <polygon id="cat-left-arm" fill="#0E2440" points="28.9837497 157.921778 45.8339769 222.356646 45.8339769 232.06281 50.7618735 236.148204 60.8658744 227.8271 60.8658744 177.994427"></polygon>
                            <path d="M81.6457381,59.4144271 C92.2335587,60.1105299 101.539836,64.2638235 109.56457,71.874308 C121.60167,83.2900348 138.300784,125.061584 136.011046,162.61615 C134.484554,187.652527 133.721308,208.067355 133.721308,223.860636 L68.8125541,250.634579 L49.6479777,185.923931 C35.1622772,169.533222 27.5351414,160.285641 26.7665703,158.181186 C25.6137138,155.024503 -1.14161114,113.643166 0.0378702908,95.5184796 C0.824191247,83.4353553 6.15715132,71.4006711 16.0367505,59.4144271 L81.6457381,59.4144271 Z" id="cat-body" fill="#EDDECF"></path>
                            <path d="M136.011046,162.61615 C134.484554,187.652527 133.721308,208.067355 133.721308,223.860636 L68.8125541,250.634579 L49.6479777,185.923931 C35.1622772,169.533222 27.5351414,160.285641 26.7665703,158.181186 C25.6137138,155.024503 138.300784,125.061584 136.011046,162.61615 Z" id="cat-body" fill="#EDDECF"></path>
                            <polygon id="cat-right-arm" fill="#0E2440" points="87.1154903 138.833848 69.7571306 236.068509 60.1181019 241.942754 46.3739995 241.942754 46.3739995 230.516435 57.0129821 225.423453 53.6184019 147.264853"></polygon>
                            <path d="M4.54747351e-13,43.0374161 C4.55521162e-13,55.7579331 8.38360457,71.130787 16.5082765,76.2735553 C24.6329485,81.4163236 33.6486921,85.4899023 38.7295845,85.4899023 C42.1168461,85.4899023 49.1289444,82.4177866 59.7658794,76.2735553 C70.0445243,66.6903985 75.9577002,58.7161459 77.5054071,52.3507975 C79.0531139,45.9854491 79.0531139,38.2735847 77.5054071,29.2152043 C79.9349147,24.3187824 81.516796,19.9732081 82.251051,16.1784811 C82.985306,12.3837542 83.5665912,7.85456399 83.9949066,2.59091051 C78.0463973,3.50583104 73.6408673,4.54632068 70.7783168,5.71237944 C67.9157662,6.87843819 64.2449538,9.12784321 59.7658794,12.4605945 C51.3621223,11.3892797 45.1816802,10.8536224 41.2245533,10.8536224 C37.2674264,10.8536224 31.7985421,11.3892797 24.8179003,12.4605945 C21.6762765,9.51387564 18.9064019,7.26447062 16.5082765,5.71237944 C14.1101511,4.16028825 10.6620181,2.38533533 6.16387744,0.387520679 C4.98813779,5.53451866 4.19269488,9.55887659 3.77754871,12.4605945 C3.36240254,15.3623124 3.0226947,19.2722374 2.7584252,24.1903695 C0.919475068,28.2747227 4.54747351e-13,34.5570715 4.54747351e-13,43.0374161 Z" id="cat-face" fill="#EDDECF"></path>
                            <ellipse id="Oval" fill="#0E2440" cx="39.1280621" cy="52.0697943" rx="33.3313122" ry="20.2809252"></ellipse>
                            <ellipse id="Oval-2" fill="#FFFFFF" cx="21.7378123" cy="56.4157068" rx="4.34756245" ry="4.34591254"></ellipse>
                            <ellipse id="Oval-2" fill="#FFFFFF" cx="56.5183119" cy="56.4157068" rx="4.34756245" ry="4.34591254"></ellipse>
                        </g>
                        <polygon id="Path-13" fill="#F2E2DF" points="171.897374 408.29825 256.680502 436.705126 241.209294 465.112002 140.555864 446.4806"></polygon>
                        <path d="M182.462366,411.666667 C182.707117,408.483992 181.299795,405.974576 178.240399,404.138418 C173.651306,401.384181 172.378592,404.267691 168.878648,402.32262 C165.378704,400.37755 168.478488,398.804745 165.02381,396.242938 C161.569131,393.681131 161.569131,396.242938 156.579877,393.929327 C155.465106,393.412387 153.960052,390.752334 151.440092,388.714689 C146.720509,384.898424 140.257468,380.746814 138.59063,379.533898 C136.236073,377.820548 117.818511,366.252751 83.3379416,344.830508 C61.7997952,332.344633 45.4014337,325.367232 34.1428571,323.898305 C17.2549923,321.694915 -2.766514,332.419376 0.672475828,349.492208 C4.11146566,366.56504 26.0559004,392.982869 42.8885527,402.32262 C48.8831482,405.648776 60.5117654,413.060232 79.3002562,423.050847 C90.3476167,428.925184 104.328527,434.304784 119.867845,443.983051 C121.201217,444.813508 122.804147,448.707468 126.108295,450.776836 C129.260715,452.751179 130.017015,449.167985 131.798771,450.776836 C131.884528,450.854271 133.594643,453.463059 136.387865,454.816384 C139.181087,456.169709 139.436908,454.327818 142.445827,455.275424 C143.325278,455.552391 147.791877,456.378663 155.845622,457.754237 L182.462366,411.666667 Z" id="Path-9" fill="#233A57"></path>
                        <polygon id="Path-12" fill="#F2E2DF" points="299.830626 455.172425 256.79089 461.30367 243.117013 428.095353 321.523151 406.22998 332.79115 448.633751"></polygon>
                        <path d="M353.424137,351.991525 C343.998464,359.336158 318.091239,378.794695 315.729647,380.819209 C310.589145,385.225989 306.000768,386.694915 300.677419,394.975767 C298.687636,398.071019 295.721198,394.774011 291.866359,398.262712 C288.011521,401.751412 291.47047,403.036723 288.745776,405.240113 C286.021081,407.443503 286.388209,406.796975 281.58679,407.443503 C278.944717,407.799267 278.771384,411.901451 276.538786,413.043785 C274.7141,413.977407 271.490783,413.961864 269.83871,416.165254 C268.27401,418.252112 267.539755,419.996463 267.635945,421.398305 C278.454827,444.666588 284.543024,457.45849 285.900538,459.774011 C287.936808,463.247293 291.015356,465.060722 293.885561,464.272599 C298.566436,462.987288 297.28149,460.416667 299.208909,459.774011 C301.136329,459.131356 303.430876,462.987288 307.928187,461.610169 C312.425499,460.233051 309.672043,455.091808 312.517281,455.091808 C315.362519,455.091808 317.654866,457.371518 322.154378,455.918079 C326.65389,454.46464 328.093876,451.126095 329.864055,450.225989 C333.192856,448.53335 392.878924,415.582556 398.701895,410.564972 C410.081413,400.759379 439.451613,380.451977 439.451613,363.926554 C439.451613,347.40113 426.18166,328.390069 416.971394,326.468927 C407.761128,324.547784 391.295933,322.481225 353.424137,351.991525 Z" id="right-pant-leg" fill="#233A57"></path>
                        <path d="M249.27957,426.585452 C248.912442,425.759181 248.086406,425.346045 246.801459,425.346045 C244.87404,425.346045 245.241167,427.274011 243.772657,427.824859 C242.304147,428.375706 242.120584,426.355932 239.642473,426.90678 C237.164363,427.457627 238.357527,429.661017 237.164363,429.661017 C235.971198,429.661017 235.971198,428.559322 234.686252,428.559322 C233.829621,428.559322 233.064772,428.926554 232.391705,429.661017 L186.068631,434.151968 C173.103049,435.791073 164.667993,437.181592 160.763462,438.323526 C154.906665,440.036427 140.749066,451.364738 141.288045,459.60217 C141.827023,467.839603 158.304984,475.381356 163.188172,475.381356 C168.07136,475.381356 203.384059,472.564715 218.991551,470.240113 C234.599044,467.915511 244.072763,465.054088 248.682988,463.721751 C249.300147,463.543395 251.168627,463.772134 251.344662,463.721751 C252.510466,463.38809 252.823628,462.602739 253.453192,462.427618 C254.027196,462.267952 254.327573,463.308616 255.612698,462.987288 C256.897824,462.66596 256.392665,462.115113 257.218702,461.701977 C258.044739,461.288842 258.365975,462.987288 259.696813,462.427618 C260.584037,462.054505 261.134729,461.475995 261.348886,460.69209 L249.27957,426.585452 Z" id="sock" fill="#F06D5D"></path>
                        <path d="M288.847087,62.9538185 C279.497186,77.8480945 273.377529,87.3670388 270.488117,91.5106514 C266.154,97.7260702 241.427946,118.207881 239.620707,119.495244 C237.813468,120.782608 229.54291,124.567597 217.390397,117.283384 C205.237885,109.999171 197.130077,96.7485229 193.930967,91.5106514 C190.731858,86.2727799 177.447875,64.9810622 179.024432,55.5281366 C180.60099,46.0752109 198.29339,13.4264015 206.016965,8.9093121 C213.740539,4.39222267 225.29229,-2.63168871 242.391004,1.2530365 C259.489718,5.1377617 272.730537,9.58199485 279.309905,26.015684 C283.69615,36.9714767 286.875211,49.2841883 288.847087,62.9538185 Z" id="face" fill="#F2E2DF"></path>
                        <ellipse id="Oval-2" fill="#0E2440" cx="207.948743" cy="60.9279895" rx="5.79674994" ry="5.79455005"></ellipse>
                        <ellipse id="Oval-2" fill="#0E2440" cx="260.119492" cy="72.5170896" rx="5.79674994" ry="5.79455005"></ellipse>
                        <polygon id="Path-10" fill="#0E2440" fill-rule="nonzero" points="158.048387 48.2909605 147.768817 68.1214689 158.048387 75.8333333 164.106708 58.0225989"></polygon>
                    </g>
                    <g id="left-arm" transform="translate(111.606759, 79.322034)" fill="#FFFFFF">
                        <path d="M1.81829935,175.141098 C3.16603493,132.32292 4.61456096,103.780294 6.16387744,89.5132191 C7.90743113,73.4574867 21.3126921,47.5901352 46.3796604,11.9111648 L42.663287,0.636124832 L107.588019,36.0881327 C80.0572462,54.4523634 63.6906737,66.8270853 58.4883011,73.2122984 C50.6847423,82.7901179 45.3868204,99.9036429 42.663287,126.603615 C40.8475981,144.403596 39.2059278,163.669353 37.7382762,184.400886 C37.0576201,202.860657 37.9137729,217.012979 40.3067346,226.857852 C42.6996962,236.702725 46.493347,250.902348 51.687687,269.456722 C45.1147663,269.198766 37.6958573,270.020456 29.4309599,271.921793 C21.1660625,273.82313 15.9802608,279.121967 13.8735549,287.818304 C10.9365349,279.249566 8.36664241,270.925648 6.16387744,262.846552 C2.85972997,250.727908 2.50980416,250.806162 1.22275194,231.402938 C0.364717127,218.467455 0.364717127,206.321727 1.22275194,194.965754 L1.22275194,174.987572 L1.81829935,175.141098 Z" id="Combined-Shape"></path>
                    </g>
                    <path d="M292.073661,269.994152 C289.744187,237.979008 287.595175,218.367021 285.626626,211.158192 C279.400387,188.357695 270.344098,166.93585 258.457757,146.892655 L288.229918,115.677966 C307.960002,152.856677 319.084591,177.338786 321.603687,189.124294 C324.122782,200.909801 327.916433,224.535037 332.984639,260 C332.005632,296.478343 327.477727,320.59322 319.400922,332.344633 C311.324117,344.096045 298.229903,363.498117 280.11828,390.550847 C276.80224,379.893861 272.457898,370.896686 267.085253,363.559322 C261.712609,356.221959 256.849377,352.644449 252.495558,352.826792 C270.910706,336.968629 281.954395,325.244821 285.626626,317.655367 C289.298857,310.065913 291.447869,294.178842 292.073661,269.994152 Z" id="Combined-Shape" fill="#FFFFFF"></path>
                    <g id="right-arm" transform="translate(242.651952, 105.856041)"></g>
                </g>
                <g id="scarf" transform="translate(156.164443, 89.734370)">
                    <path d="M8.85936616,12.7232575 C8.85936616,5.84788804 19.2142133,1.6247242 39.9239076,0.0537659581 L39.9239076,97.9763962 L5.77176655,66.0497835 C7.83016629,37.3741356 8.85936616,19.5986269 8.85936616,12.7232575 Z" id="Path-4" fill="#D55A4B"></path>
                    <path d="M161.273546,113.634614 L28.4860821,80.8167497 L4.4538362,71.4803196 L6.28947368,99.57354 C32.4866783,118.302354 58.3694058,127.66676 83.9376562,127.66676 C109.505907,127.66676 135.284537,122.989378 161.273546,113.634614 Z" id="Path-7" fill="#D55A4B"></path>
                    <path d="M139.592343,59.8364867 C106.382171,60.1250059 80.0595046,55.4375453 60.6243431,45.7741049 C31.4716009,31.2789444 7.91965865,15.8262998 8.85936616,11.4379467 C9.32593974,9.25908834 3.99762182,22.8980244 0.782561242,49.6300371 C0.0480117804,55.7375381 0.659890941,66.693282 2.61819872,82.4972688 C36.8177528,104.004767 61.1705434,116.245821 75.6765705,119.220433 C97.4356111,123.682349 147.63356,116.649811 161.29619,112.213787 C170.40461,109.256437 177.853396,105.722554 183.642548,101.612137 L139.592343,59.8364867 Z" id="Path-3" fill="#F06D5D"></path>
                </g>
                <path d="M251.743377,417.441475 C231.407578,401.634727 216.515667,391.819642 207.067644,387.996219 C200.150726,385.197084 188.155415,378.034047 167.777266,375.310734 C162.805954,374.646374 154.545585,374.646374 142.99616,375.310734 L151.409788,362.463983 C157.548782,362.82274 163.004608,363.187853 167.777266,363.559322 C172.549923,363.930791 178.546339,365.338512 185.766513,367.782486 C179.97867,364.967043 174.777936,363.008475 170.164312,361.90678 C165.550687,360.805085 159.982348,359.642185 153.459293,358.418079 L163.243875,337.944662 C194.412577,346.207543 215.677705,354.38065 227.039259,362.463983 C238.400814,370.547317 248.764957,379.266949 258.13169,388.622881 C258.608985,383.593603 259.390741,379.950332 260.476959,377.693068 C265.026778,368.238111 273.681301,362.463983 283.308492,362.463983 C302.920641,362.463983 335.004557,358.785311 345.834101,356.214689 C356.663645,353.644068 357.765745,352.33922 361.987711,350.338983 C366.209677,348.338746 366.137112,344.198886 367.137761,344.271133 C367.804861,344.319298 369.392325,346.341915 371.900154,350.338983 L376.672811,361.90678 C375.326677,362.886064 372.542627,363.804143 368.320661,364.661017 C364.098694,365.517891 359.479007,366.068738 354.461598,366.313559 C359.264849,366.55838 363.490237,366.55838 367.137761,366.313559 C370.785286,366.068738 374.391951,365.517891 377.957757,364.661017 L383.648233,376.738156 C367.51231,377.580968 356.192546,377.899272 349.68894,377.693068 C337.538851,377.307836 324.93438,376.024083 311.875525,373.841808 C296.08976,372.00565 288.714176,373.077859 283.308492,377.693068 C277.999912,382.225373 274.794931,388.194444 273.693548,395.600282 L278.19086,398.446328 L258.13169,417.441475 L251.743377,417.441475 Z" id="book" fill="#233A57"></path>
                <path d="M154.809151,410.748588 C161.482358,415.269909 177.263066,425.448592 186.355868,426.779811 C192.417736,427.66729 207.667227,424.622888 232.104339,417.646604 L246.287696,411.689365 C252.572765,407.013073 255.528069,404.033568 255.15361,402.750849 C254.77915,401.46813 251.107876,401.46813 244.139785,402.750849 L217.579915,406.227266 L199.470732,406.227266 C195.945998,404.199541 193.823636,401.052338 193.103647,396.785658 C192.023664,390.385637 196.41321,389.449153 196.41321,385.960452 C196.41321,384.014297 195.0896,378.615819 190.722734,376.779661 C186.355868,374.943503 183.11219,374.905492 180.810292,376.779661 C178.508394,378.65383 182.829493,379.350282 182.829493,383.206215 C182.829493,385.776836 180.198413,388.102637 174.936252,390.183616 C166.044993,390.29457 159.33596,390.911746 154.809151,392.035145 C150.282342,393.158544 147.384873,395.479221 146.116743,398.997175 C147.462878,403.817236 150.360347,407.734373 154.809151,410.748588 Z" id="left-hand" fill="#F2E2DF"></path>
                <path d="M300.344469,410.89944 C294.532721,402.082454 291.682796,398.379842 286.175883,397.645378 C280.668971,396.910915 283.647447,397.867382 275.529186,397.645378 C267.410924,397.423374 259.317971,391.743998 259.317971,396.910915 C259.317971,400.355527 265.222605,404.609293 277.031873,409.672215 L253.297673,412.502278 C233.972465,399.445817 222.53747,392.473743 218.992688,391.586056 C213.675516,390.254527 216.167905,400.647217 218.992688,403.911603 C220.875877,406.08786 229.758755,414.527164 245.641321,429.229515 C273.592902,436.629261 290.506694,440.012244 296.382696,439.378465 C302.258699,438.744686 306.822249,435.973017 310.073348,431.063458 C307.461928,423.49877 304.218968,416.77743 300.344469,410.89944 Z" id="right-hand" fill="#F2E2DF"></path>
                <path d="M264.902113,63.0543761 C269.919547,75.628097 275.822911,86.4928784 282.612203,95.6487201 C289.401495,104.804562 294.038707,108.084273 296.523837,105.487855 C298.191509,104.099622 299.025346,102.343902 299.025346,100.220696 C299.025346,98.0974888 298.191509,94.5566277 296.523837,89.5981121 C300.639982,93.5195214 303.248507,99.2137476 304.349411,106.680791 C306.000768,117.881356 300.780825,123.677875 293.611309,133.543889 C286.441794,143.409903 281.77107,152.800087 285.99232,170.211864 C290.213569,187.623642 300.526613,193.139931 307.285714,195.734463 C314.044815,198.328996 346.804191,204.571397 353.360215,190.585406 C355.767681,185.449549 347.676905,182.120219 346.384793,174.435028 C345.523385,169.311568 344.992255,165.823065 344.791403,163.969521 C347.702549,172.777377 350.55882,178.652885 353.360215,181.596045 C357.562308,186.010785 361.620584,189.970962 366.026114,187.990873 C370.431644,186.010785 372.733464,184.350282 375.204301,173.232879 C377.675138,162.115475 372.733464,158.55173 370.431644,156.073446 C351.410186,135.593751 338.408252,123.810972 337.208643,112.678699 C335.19148,93.9595862 331.516846,45.727559 322.154378,29.9365986 C312.79191,14.1456381 288.527832,0.367231638 264.902113,0.367231638 C241.276394,0.367231638 217.613993,15.4381689 209.39993,29.9365986 C201.185868,44.4350282 192.026066,62.2179305 186.868613,86.299435 C181.711159,110.38094 188.58118,117.63977 186.868613,135.141243 C185.156046,152.642716 182.462366,159.745763 185.215822,171.129944 C187.969278,182.514124 196.188207,182.974451 202.837942,186.370056 C207.271098,188.633793 209.458427,187.960535 209.39993,184.350282 C207.570958,180.391002 206.729763,177.085918 206.876344,174.435028 C207.022925,171.784139 207.864121,168.295637 209.39993,163.969521 C208.529467,172.375584 209.401533,178.801939 212.016129,183.248588 C214.630725,187.695236 218.975306,190.140842 225.049872,190.585406 C229.454924,190.957847 233.248336,189.552731 236.430108,186.370056 C241.202765,181.596045 226.945057,143.916702 223.397081,133.543889 C217.087497,115.097273 211.531255,98.4497966 218.692279,81.6999253 C223.466295,70.5333445 238.869573,64.3181614 264.902113,63.0543761 Z" id="hair" fill="#0E2440"></path>
                <path d="M386.540786,36.8945584 C375.529829,65.3605314 387.1427,67.6553706 395.763441,79.3220339 C402.004608,87.7683616 396.248261,93.5287138 393.560676,99.1525424 C386.540786,113.841808 407.644041,121.233178 417.423963,113.841808 C433.9447,101.355932 411.917051,93.4510998 417.423963,87.7683616 C428.655515,76.1782063 457.807988,87.7683616 472.451488,71.2429379 C477.404919,65.6529122 480.589975,48.9287451 472.451488,36.8945584 C467.539056,29.6306617 449.711819,16.6620925 430.062094,16.1581921 C411.075232,15.6712902 390.229709,27.3578029 386.540786,36.8945584 Z" id="Path-30" fill="#DFE2EC" fill-rule="nonzero" transform="translate(429.737994, 66.443374) rotate(-360.000000) translate(-429.737994, -66.443374) "></path>
                <path d="M214.402458,272.485876 C210.357708,269.109765 207.114868,266.661554 204.673938,265.141243 C202.233008,263.620932 198.990168,262.029594 194.945418,260.367232 C197.737834,263.119783 199.267293,266.363662 199.533794,270.09887 C199.800296,273.834078 199.249844,276.894341 197.882437,279.279661 C201.623758,276.644244 204.621727,274.808086 206.876344,273.771186 C209.130962,272.734287 211.639666,272.30585 214.402458,272.485876 Z" id="Path-14" fill="#0E2440" fill-rule="nonzero"></path>
                <path d="M272.592166,262.662429 C269.027658,264.212785 266.243608,266.875214 264.240015,270.649718 C262.236423,274.424221 261.410386,278.892206 261.761905,284.053672 C259.9385,280.87858 258.072269,278.430369 256.16321,276.70904 C254.254152,274.98771 251.806636,273.579989 248.820661,272.485876 C252.246662,269.416406 255.917937,267.090606 259.834485,265.508475 C263.751033,263.926343 268.003594,262.977661 272.592166,262.662429 Z" id="Path-15" fill="#0E2440" fill-rule="nonzero"></path>
            </g>
        </g>
    </g>
</svg>